<svg width="80" height="80" viewBox="0 0 80 80" fill="none" xmlns="http://www.w3.org/2000/svg">
<path d="M45.2573 40.0001L53.0562 48.9143L63.5431 55.543L65.3717 40.0595L63.5431 24.8457L52.8551 30.7337L45.2573 40.0001Z" fill="#188038"/>
<path d="M0 54.1709V67.428C0 70.4589 2.45488 72.9137 5.48576 72.9137H18.7429L21.4858 62.8931L18.7429 54.1709L9.64576 51.428L0 54.1709Z" fill="#1967D2"/>
<path d="M18.7429 7.08545L0 25.8283L9.64576 28.5712L18.7429 25.8283L21.44 17.2203L18.7429 7.08545Z" fill="#EA4335"/>
<path d="M18.7429 25.8287H0V54.1716H18.7429V25.8287Z" fill="#4285F4"/>
<path d="M75.5151 15.0213L63.5425 24.8453V55.5424L75.5654 65.7687C77.3665 67.1767 79.9996 65.8922 79.9996 63.6064V17.1424C79.9996 14.8247 77.3071 13.5538 75.5151 15.0213Z" fill="#34A853"/>
<path d="M45.2564 40V54.1715H18.7422V72.9144H58.0566C61.0875 72.9144 63.5424 70.4595 63.5424 67.4286V55.5429L45.2564 40Z" fill="#34A853"/>
<path d="M58.0564 7.08545H18.7422V25.8283H45.2564V39.9999L63.5422 24.8456V12.5712C63.5422 9.54033 61.0873 7.08545 58.0564 7.08545Z" fill="#FBBC04"/>
</svg>
