<svg width="80" height="80" viewBox="0 0 80 80" fill="none" xmlns="http://www.w3.org/2000/svg">
<path d="M55.8009 30.907H76.4651C78.4174 30.907 80 32.4896 80 34.4419V53.2642C80 60.4393 74.1835 66.2558 67.0084 66.2558H66.947C63.5011 66.2563 60.1961 64.8878 57.7593 62.4513C55.3225 60.0149 53.9535 56.7101 53.9535 53.2642V32.7544C53.9535 31.7341 54.7806 30.907 55.8009 30.907Z" fill="#5059C9"/>
<path d="M69.7675 27.186C74.3913 27.186 78.1396 23.4377 78.1396 18.8139C78.1396 14.1901 74.3913 10.4418 69.7675 10.4418C65.1437 10.4418 61.3954 14.1901 61.3954 18.8139C61.3954 23.4377 65.1437 27.186 69.7675 27.186Z" fill="#5059C9"/>
<path d="M43.721 27.186C50.3997 27.186 55.814 21.7718 55.814 15.093C55.814 8.41423 50.3997 3 43.721 3C37.0422 3 31.6279 8.41423 31.6279 15.093C31.6279 21.7718 37.0422 27.186 43.721 27.186Z" fill="#7B83EB"/>
<path d="M59.8456 30.907H25.7358C23.8068 30.9547 22.2809 32.5556 22.3256 34.4847V55.9526C22.0563 67.5288 31.2148 77.1353 42.7907 77.4186C54.3667 77.1353 63.5252 67.5288 63.2558 55.9526V34.4847C63.3006 32.5556 61.7746 30.9547 59.8456 30.907Z" fill="#7B83EB"/>
<path opacity="0.1" d="M44.6511 30.907V60.9907C44.6419 62.3703 43.8059 63.6096 42.5302 64.1349C42.124 64.3067 41.6875 64.3954 41.2465 64.3954H23.9628C23.7209 63.7814 23.4976 63.1674 23.3116 62.5349C22.6603 60.4001 22.3281 58.1808 22.3255 55.9488V34.4791C22.2808 32.5531 23.8043 30.9547 25.7302 30.907H44.6511Z" fill="black"/>
<path opacity="0.2" d="M42.7907 30.907V62.8512C42.7907 63.2922 42.702 63.7287 42.5302 64.1349C42.0049 65.4106 40.7656 66.2466 39.386 66.2558H24.8372C24.5209 65.6419 24.2232 65.0279 23.9628 64.3954C23.7023 63.7628 23.4976 63.1674 23.3116 62.5349C22.6603 60.4001 22.3281 58.1808 22.3255 55.9488V34.4791C22.2808 32.5531 23.8043 30.9547 25.7302 30.907H42.7907Z" fill="black"/>
<path opacity="0.2" d="M42.7907 30.907V59.1302C42.7765 61.0047 41.2604 62.5207 39.386 62.5349H23.3116C22.6603 60.4001 22.3281 58.1808 22.3255 55.9488V34.4791C22.2808 32.5531 23.8043 30.9547 25.7302 30.907H42.7907Z" fill="black"/>
<path opacity="0.2" d="M40.9302 30.907V59.1302C40.916 61.0047 39.4 62.5207 37.5255 62.5349H23.3116C22.6603 60.4001 22.3281 58.1808 22.3255 55.9488V34.4791C22.2808 32.5531 23.8043 30.9547 25.7302 30.907H40.9302Z" fill="black"/>
<path opacity="0.1" d="M44.6511 21.2884V27.1488C44.3349 27.1674 44.0372 27.1861 43.7209 27.1861C43.4046 27.1861 43.107 27.1674 42.7907 27.1488C42.1627 27.1072 41.5399 27.0075 40.9302 26.8512C37.1627 25.959 34.0502 23.3168 32.5581 19.7442C32.3014 19.1442 32.102 18.5213 31.9628 17.8837H41.2465C43.1239 17.8909 44.644 19.411 44.6511 21.2884Z" fill="black"/>
<path opacity="0.2" d="M42.7907 23.1489V27.1489C42.1627 27.1072 41.5399 27.0075 40.9302 26.8512C37.1627 25.959 34.0502 23.3168 32.5581 19.7442H39.386C41.2634 19.7513 42.7835 21.2715 42.7907 23.1489Z" fill="black"/>
<path opacity="0.2" d="M42.7907 23.1489V27.1489C42.1627 27.1072 41.5399 27.0075 40.9302 26.8512C37.1627 25.959 34.0502 23.3168 32.5581 19.7442H39.386C41.2634 19.7513 42.7835 21.2715 42.7907 23.1489Z" fill="black"/>
<path opacity="0.2" d="M40.9302 23.1489V26.8512C37.1627 25.959 34.0502 23.3168 32.5581 19.7442H37.5255C39.4029 19.7513 40.9231 21.2715 40.9302 23.1489Z" fill="black"/>
<path d="M37.52 19.7442H3.41023C1.52681 19.7442 0 21.271 0 23.1544V57.2642C0 59.1476 1.52681 60.6744 3.41023 60.6744H37.52C39.4034 60.6744 40.9302 59.1476 40.9302 57.2642V23.1544C40.9302 21.271 39.4034 19.7442 37.52 19.7442Z" fill="url(#paint0_linear_4497_19111)"/>
<path d="M29.44 32.7265H22.6214V51.2939H18.2772V32.7265H11.4902V29.1246H29.44V32.7265Z" fill="white"/>
<defs>
<linearGradient id="paint0_linear_4497_19111" x1="7.1107" y1="17.08" x2="33.8195" y2="63.3386" gradientUnits="userSpaceOnUse">
<stop stop-color="#5A62C3"/>
<stop offset="0.5" stop-color="#4D55BD"/>
<stop offset="1" stop-color="#3940AB"/>
</linearGradient>
</defs>
</svg>
