<svg width="80" height="80" viewBox="0 0 80 80" fill="none" xmlns="http://www.w3.org/2000/svg">
<circle cx="40" cy="40" r="40" fill="#39AC37"/>
<path d="M31.2717 32.3582C31.2717 29.7143 34.4719 27.7873 39.5637 27.7873C45.0205 27.7873 48.2207 31.0712 48.2207 34.2852H57.4608C57.4608 25.8579 50.0412 20 39.5637 20C29.1596 20 21.8846 25.6438 21.8846 32.3582C21.8846 47.6441 48.5834 41.4278 48.5834 47.714C48.5834 50.1437 45.2386 52.215 40.2914 52.215C34.908 52.215 30.9043 49.499 30.9043 46.2152H21.6665C21.6665 54.6425 29.8139 60 40.2914 60C50.6931 60 58.3332 54.7146 58.3332 47.714C58.3332 32.8586 31.2717 39.0004 31.2717 32.3582Z" fill="white"/>
</svg>
