<svg width="80" height="80" viewBox="0 0 80 80" fill="none" xmlns="http://www.w3.org/2000/svg">
<path d="M18.2372 40.7613C19.1167 43.8355 20.3151 46.8104 21.8132 49.6381C22.4974 50.8901 23.1816 52.1421 24.424 52.9309C24.6392 53.0654 24.8764 53.1614 25.1249 53.2147C26.9549 53.6028 27.9581 52.138 28.6045 50.7983C29.5691 48.6964 30.3485 46.5153 30.934 44.2795C31.0473 43.8621 31.1564 43.4448 31.2655 43.0275C31.4754 42.2304 31.6852 41.4249 31.8657 40.6194L39.9413 19.1683C41.6188 16.9469 43.7935 15.1443 46.293 13.9035C48.7924 12.6626 51.5484 12.0175 54.3421 12.0193C58.3652 11.9947 62.2766 13.3343 65.4313 15.8171C70.7115 19.7901 73.8552 27.6152 73.8552 27.6152C74.3136 28.634 74.5495 29.7377 74.5478 30.8537C74.5457 31.8874 74.3388 32.9105 73.9388 33.8646C73.5392 34.8187 72.9541 35.6852 72.2175 36.4145C71.4808 37.1439 70.607 37.7218 69.6458 38.1153C68.6846 38.5088 67.6546 38.7102 66.6149 38.708C65.459 38.7073 64.3169 38.4538 63.2705 37.9655C62.2237 37.4773 61.2978 36.7662 60.5583 35.8827L60.4827 35.7908C59.9752 35.1096 59.5522 34.3697 59.2235 33.5873C58.7883 32.6052 58.3005 31.6468 57.7629 30.716C57.4774 30.2361 57.1585 29.7812 56.8311 29.3305C56.5482 28.9276 56.2136 28.5629 55.8363 28.2454C55.0934 27.6486 54.1574 27.4107 53.2844 27.924C53.2424 27.948 53.2017 27.9745 53.1626 28.0033C52.2644 28.6168 51.6348 29.8563 51.1983 30.8078C49.9391 33.5038 49.2172 36.2666 48.5037 39.1045C48.3694 39.6512 48.235 40.1979 48.1091 40.7488L44.7723 51.5996L40.0672 61.9161C38.3828 64.0775 36.227 65.8307 33.7624 67.0439C31.2978 68.2567 28.5884 68.8982 25.8384 68.919C14.4092 69.1611 8.98635 58.9029 8.98635 58.9029C2.4764 48.2859 0.558238 34.2801 0.100734 29.8021C0.00419694 28.8714 5.46883e-07 28.3163 5.46883e-07 28.3163C-0.000529528 26.9137 0.384287 25.5375 1.1129 24.3365C1.84152 23.1354 2.88626 22.155 4.13432 21.5012C5.4248 20.851 6.86085 20.5393 8.30644 20.5956C9.65133 20.6515 10.9599 21.0464 12.1092 21.7433C13.0022 22.2747 13.7742 22.9854 14.3757 23.83C15.4502 25.3491 15.6936 27.2396 15.9077 29.0467C16.3522 33.0097 17.1314 36.9284 18.2372 40.7613Z" fill="url(#paint0_linear_4497_18469)"/>
<path d="M18.2372 40.7613C19.1167 43.8355 20.3151 46.8104 21.8132 49.6381C22.4974 50.8901 23.1816 52.1421 24.424 52.9309C24.6392 53.0654 24.8764 53.1614 25.1249 53.2147C26.9549 53.6028 27.9581 52.138 28.6045 50.7983C29.5691 48.6964 30.3485 46.5153 30.934 44.2795C31.0473 43.8621 31.1564 43.4448 31.2655 43.0275C31.4754 42.2304 31.6852 41.4249 31.8657 40.6194L39.9413 19.1683C41.6188 16.9469 43.7935 15.1443 46.293 13.9035C48.7924 12.6626 51.5484 12.0175 54.3421 12.0193C58.3652 11.9947 62.2766 13.3343 65.4313 15.8171C70.7115 19.7901 73.8552 27.6152 73.8552 27.6152C74.3136 28.634 74.5495 29.7377 74.5478 30.8537C74.5457 31.8874 74.3388 32.9105 73.9388 33.8646C73.5392 34.8187 72.9541 35.6852 72.2175 36.4145C71.4808 37.1439 70.607 37.7218 69.6458 38.1153C68.6846 38.5088 67.6546 38.7102 66.6149 38.708C65.459 38.7073 64.3169 38.4538 63.2705 37.9655C62.2237 37.4773 61.2978 36.7662 60.5583 35.8827L60.4827 35.7908C59.9752 35.1096 59.5522 34.3697 59.2235 33.5873C58.7883 32.6052 58.3005 31.6468 57.7629 30.716C57.4774 30.2361 57.1585 29.7812 56.8311 29.3305C56.5482 28.9276 56.2136 28.5629 55.8363 28.2454C55.0934 27.6486 54.1574 27.4107 53.2844 27.924C53.2424 27.948 53.2017 27.9745 53.1626 28.0033C52.2644 28.6168 51.6348 29.8563 51.1983 30.8078C49.9391 33.5038 49.2172 36.2666 48.5037 39.1045C48.3694 39.6512 48.235 40.1979 48.1091 40.7488L44.7723 51.5996L40.0672 61.9161C38.3828 64.0775 36.227 65.8307 33.7624 67.0439C31.2978 68.2567 28.5884 68.8982 25.8384 68.919C14.4092 69.1611 8.98635 58.9029 8.98635 58.9029C2.4764 48.2859 0.558238 34.2801 0.100734 29.8021C0.00419694 28.8714 5.46883e-07 28.3163 5.46883e-07 28.3163C-0.000529528 26.9137 0.384287 25.5375 1.1129 24.3365C1.84152 23.1354 2.88626 22.155 4.13432 21.5012C5.4248 20.851 6.86085 20.5393 8.30644 20.5956C9.65133 20.6515 10.9599 21.0464 12.1092 21.7433C13.0022 22.2747 13.7742 22.9854 14.3757 23.83C15.4502 25.3491 15.6936 27.2396 15.9077 29.0467C16.3522 33.0097 17.1314 36.9284 18.2372 40.7613Z" fill="url(#paint1_radial_4497_18469)"/>
<path d="M18.2372 40.7613C19.1167 43.8355 20.3151 46.8104 21.8132 49.6381C22.4974 50.8901 23.1816 52.1421 24.424 52.9309C24.6392 53.0654 24.8764 53.1614 25.1249 53.2147C26.9549 53.6028 27.9581 52.138 28.6045 50.7983C29.5691 48.6964 30.3485 46.5153 30.934 44.2795C31.0473 43.8621 31.1564 43.4448 31.2655 43.0275C31.4754 42.2304 31.6852 41.4249 31.8657 40.6194L39.9413 19.1683C41.6188 16.9469 43.7935 15.1443 46.293 13.9035C48.7924 12.6626 51.5484 12.0175 54.3421 12.0193C58.3652 11.9947 62.2766 13.3343 65.4313 15.8171C70.7115 19.7901 73.8552 27.6152 73.8552 27.6152C74.3136 28.634 74.5495 29.7377 74.5478 30.8537C74.5457 31.8874 74.3388 32.9105 73.9388 33.8646C73.5392 34.8187 72.9541 35.6852 72.2175 36.4145C71.4808 37.1439 70.607 37.7218 69.6458 38.1153C68.6846 38.5088 67.6546 38.7102 66.6149 38.708C65.459 38.7073 64.3169 38.4538 63.2705 37.9655C62.2237 37.4773 61.2978 36.7662 60.5583 35.8827L60.4827 35.7908C59.9752 35.1096 59.5522 34.3697 59.2235 33.5873C58.7883 32.6052 58.3005 31.6468 57.7629 30.716C57.4774 30.2361 57.1585 29.7812 56.8311 29.3305C56.5482 28.9276 56.2136 28.5629 55.8363 28.2454C55.0934 27.6486 54.1574 27.4107 53.2844 27.924C53.2424 27.948 53.2017 27.9745 53.1626 28.0033C52.2644 28.6168 51.6348 29.8563 51.1983 30.8078C49.9391 33.5038 49.2172 36.2666 48.5037 39.1045C48.3694 39.6512 48.235 40.1979 48.1091 40.7488L44.7723 51.5996L40.0672 61.9161C38.3828 64.0775 36.227 65.8307 33.7624 67.0439C31.2978 68.2567 28.5884 68.8982 25.8384 68.919C14.4092 69.1611 8.98635 58.9029 8.98635 58.9029C2.4764 48.2859 0.558238 34.2801 0.100734 29.8021C0.00419694 28.8714 5.46883e-07 28.3163 5.46883e-07 28.3163C-0.000529528 26.9137 0.384287 25.5375 1.1129 24.3365C1.84152 23.1354 2.88626 22.155 4.13432 21.5012C5.4248 20.851 6.86085 20.5393 8.30644 20.5956C9.65133 20.6515 10.9599 21.0464 12.1092 21.7433C13.0022 22.2747 13.7742 22.9854 14.3757 23.83C15.4502 25.3491 15.6936 27.2396 15.9077 29.0467C16.3522 33.0097 17.1314 36.9284 18.2372 40.7613Z" fill="url(#paint2_radial_4497_18469)"/>
<path d="M18.2372 40.7613C19.1167 43.8355 20.3151 46.8104 21.8132 49.6381C22.4974 50.8901 23.1816 52.1421 24.424 52.9309C24.6392 53.0654 24.8764 53.1614 25.1249 53.2147C26.9549 53.6028 27.9581 52.138 28.6045 50.7983C29.5691 48.6964 30.3485 46.5153 30.934 44.2795C31.0473 43.8621 31.1564 43.4448 31.2655 43.0275C31.4754 42.2304 31.6852 41.4249 31.8657 40.6194L39.9413 19.1683C41.6188 16.9469 43.7935 15.1443 46.293 13.9035C48.7924 12.6626 51.5484 12.0175 54.3421 12.0193C58.3652 11.9947 62.2766 13.3343 65.4313 15.8171C70.7115 19.7901 73.8552 27.6152 73.8552 27.6152C74.3136 28.634 74.5495 29.7377 74.5478 30.8537C74.5457 31.8874 74.3388 32.9105 73.9388 33.8646C73.5392 34.8187 72.9541 35.6852 72.2175 36.4145C71.4808 37.1439 70.607 37.7218 69.6458 38.1153C68.6846 38.5088 67.6546 38.7102 66.6149 38.708C65.459 38.7073 64.3169 38.4538 63.2705 37.9655C62.2237 37.4773 61.2978 36.7662 60.5583 35.8827L60.4827 35.7908C59.9752 35.1096 59.5522 34.3697 59.2235 33.5873C58.7883 32.6052 58.3005 31.6468 57.7629 30.716C57.4774 30.2361 57.1585 29.7812 56.8311 29.3305C56.5482 28.9276 56.2136 28.5629 55.8363 28.2454C55.0934 27.6486 54.1574 27.4107 53.2844 27.924C53.2424 27.948 53.2017 27.9745 53.1626 28.0033C52.2644 28.6168 51.6348 29.8563 51.1983 30.8078C49.9391 33.5038 49.2172 36.2666 48.5037 39.1045C48.3694 39.6512 48.235 40.1979 48.1091 40.7488L44.7723 51.5996L40.0672 61.9161C38.3828 64.0775 36.227 65.8307 33.7624 67.0439C31.2978 68.2567 28.5884 68.8982 25.8384 68.919C14.4092 69.1611 8.98635 58.9029 8.98635 58.9029C2.4764 48.2859 0.558238 34.2801 0.100734 29.8021C0.00419694 28.8714 5.46883e-07 28.3163 5.46883e-07 28.3163C-0.000529528 26.9137 0.384287 25.5375 1.1129 24.3365C1.84152 23.1354 2.88626 22.155 4.13432 21.5012C5.4248 20.851 6.86085 20.5393 8.30644 20.5956C9.65133 20.6515 10.9599 21.0464 12.1092 21.7433C13.0022 22.2747 13.7742 22.9854 14.3757 23.83C15.4502 25.3491 15.6936 27.2396 15.9077 29.0467C16.3522 33.0097 17.1314 36.9284 18.2372 40.7613Z" fill="url(#paint3_radial_4497_18469)"/>
<path d="M18.2372 40.7613C19.1167 43.8355 20.3151 46.8104 21.8132 49.6381C22.4974 50.8901 23.1816 52.1421 24.424 52.9309C24.6392 53.0654 24.8764 53.1614 25.1249 53.2147C26.9549 53.6028 27.9581 52.138 28.6045 50.7983C29.5691 48.6964 30.3485 46.5153 30.934 44.2795C31.0473 43.8621 31.1564 43.4448 31.2655 43.0275C31.4754 42.2304 31.6852 41.4249 31.8657 40.6194L39.9413 19.1683C41.6188 16.9469 43.7935 15.1443 46.293 13.9035C48.7924 12.6626 51.5484 12.0175 54.3421 12.0193C58.3652 11.9947 62.2766 13.3343 65.4313 15.8171C70.7115 19.7901 73.8552 27.6152 73.8552 27.6152C74.3136 28.634 74.5495 29.7377 74.5478 30.8537C74.5457 31.8874 74.3388 32.9105 73.9388 33.8646C73.5392 34.8187 72.9541 35.6852 72.2175 36.4145C71.4808 37.1439 70.607 37.7218 69.6458 38.1153C68.6846 38.5088 67.6546 38.7102 66.6149 38.708C65.459 38.7073 64.3169 38.4538 63.2705 37.9655C62.2237 37.4773 61.2978 36.7662 60.5583 35.8827L60.4827 35.7908C59.9752 35.1096 59.5522 34.3697 59.2235 33.5873C58.7883 32.6052 58.3005 31.6468 57.7629 30.716C57.4774 30.2361 57.1585 29.7812 56.8311 29.3305C56.5482 28.9276 56.2136 28.5629 55.8363 28.2454C55.0934 27.6486 54.1574 27.4107 53.2844 27.924C53.2424 27.948 53.2017 27.9745 53.1626 28.0033C52.2644 28.6168 51.6348 29.8563 51.1983 30.8078C49.9391 33.5038 49.2172 36.2666 48.5037 39.1045C48.3694 39.6512 48.235 40.1979 48.1091 40.7488L44.7723 51.5996L40.0672 61.9161C38.3828 64.0775 36.227 65.8307 33.7624 67.0439C31.2978 68.2567 28.5884 68.8982 25.8384 68.919C14.4092 69.1611 8.98635 58.9029 8.98635 58.9029C2.4764 48.2859 0.558238 34.2801 0.100734 29.8021C0.00419694 28.8714 5.46883e-07 28.3163 5.46883e-07 28.3163C-0.000529528 26.9137 0.384287 25.5375 1.1129 24.3365C1.84152 23.1354 2.88626 22.155 4.13432 21.5012C5.4248 20.851 6.86085 20.5393 8.30644 20.5956C9.65133 20.6515 10.9599 21.0464 12.1092 21.7433C13.0022 22.2747 13.7742 22.9854 14.3757 23.83C15.4502 25.3491 15.6936 27.2396 15.9077 29.0467C16.3522 33.0097 17.1314 36.9284 18.2372 40.7613Z" fill="url(#paint4_radial_4497_18469)"/>
<path d="M18.2372 40.7613C19.1167 43.8355 20.3151 46.8104 21.8132 49.6381C22.4974 50.8901 23.1816 52.1421 24.424 52.9309C24.6392 53.0654 24.8764 53.1614 25.1249 53.2147C26.9549 53.6028 27.9581 52.138 28.6045 50.7983C29.5691 48.6964 30.3485 46.5153 30.934 44.2795C31.0473 43.8621 31.1564 43.4448 31.2655 43.0275C31.4754 42.2304 31.6852 41.4249 31.8657 40.6194L39.9413 19.1683C41.6188 16.9469 43.7935 15.1443 46.293 13.9035C48.7924 12.6626 51.5484 12.0175 54.3421 12.0193C58.3652 11.9947 62.2766 13.3343 65.4313 15.8171C70.7115 19.7901 73.8552 27.6152 73.8552 27.6152C74.3136 28.634 74.5495 29.7377 74.5478 30.8537C74.5457 31.8874 74.3388 32.9105 73.9388 33.8646C73.5392 34.8187 72.9541 35.6852 72.2175 36.4145C71.4808 37.1439 70.607 37.7218 69.6458 38.1153C68.6846 38.5088 67.6546 38.7102 66.6149 38.708C65.459 38.7073 64.3169 38.4538 63.2705 37.9655C62.2237 37.4773 61.2978 36.7662 60.5583 35.8827L60.4827 35.7908C59.9752 35.1096 59.5522 34.3697 59.2235 33.5873C58.7883 32.6052 58.3005 31.6468 57.7629 30.716C57.4774 30.2361 57.1585 29.7812 56.8311 29.3305C56.5482 28.9276 56.2136 28.5629 55.8363 28.2454C55.0934 27.6486 54.1574 27.4107 53.2844 27.924C53.2424 27.948 53.2017 27.9745 53.1626 28.0033C52.2644 28.6168 51.6348 29.8563 51.1983 30.8078C49.9391 33.5038 49.2172 36.2666 48.5037 39.1045C48.3694 39.6512 48.235 40.1979 48.1091 40.7488L44.7723 51.5996L40.0672 61.9161C38.3828 64.0775 36.227 65.8307 33.7624 67.0439C31.2978 68.2567 28.5884 68.8982 25.8384 68.919C14.4092 69.1611 8.98635 58.9029 8.98635 58.9029C2.4764 48.2859 0.558238 34.2801 0.100734 29.8021C0.00419694 28.8714 5.46883e-07 28.3163 5.46883e-07 28.3163C-0.000529528 26.9137 0.384287 25.5375 1.1129 24.3365C1.84152 23.1354 2.88626 22.155 4.13432 21.5012C5.4248 20.851 6.86085 20.5393 8.30644 20.5956C9.65133 20.6515 10.9599 21.0464 12.1092 21.7433C13.0022 22.2747 13.7742 22.9854 14.3757 23.83C15.4502 25.3491 15.6936 27.2396 15.9077 29.0467C16.3522 33.0097 17.1314 36.9284 18.2372 40.7613Z" fill="url(#paint5_radial_4497_18469)"/>
<path d="M18.2372 40.7613C19.1167 43.8355 20.3151 46.8104 21.8132 49.6381C22.4974 50.8901 23.1816 52.1421 24.424 52.9309C24.6392 53.0654 24.8764 53.1614 25.1249 53.2147C26.9549 53.6028 27.9581 52.138 28.6045 50.7983C29.5691 48.6964 30.3485 46.5153 30.934 44.2795C31.0473 43.8621 31.1564 43.4448 31.2655 43.0275C31.4754 42.2304 31.6852 41.4249 31.8657 40.6194L39.9413 19.1683C41.6188 16.9469 43.7935 15.1443 46.293 13.9035C48.7924 12.6626 51.5484 12.0175 54.3421 12.0193C58.3652 11.9947 62.2766 13.3343 65.4313 15.8171C70.7115 19.7901 73.8552 27.6152 73.8552 27.6152C74.3136 28.634 74.5495 29.7377 74.5478 30.8537C74.5457 31.8874 74.3388 32.9105 73.9388 33.8646C73.5392 34.8187 72.9541 35.6852 72.2175 36.4145C71.4808 37.1439 70.607 37.7218 69.6458 38.1153C68.6846 38.5088 67.6546 38.7102 66.6149 38.708C65.459 38.7073 64.3169 38.4538 63.2705 37.9655C62.2237 37.4773 61.2978 36.7662 60.5583 35.8827L60.4827 35.7908C59.9752 35.1096 59.5522 34.3697 59.2235 33.5873C58.7883 32.6052 58.3005 31.6468 57.7629 30.716C57.4774 30.2361 57.1585 29.7812 56.8311 29.3305C56.5482 28.9276 56.2136 28.5629 55.8363 28.2454C55.0934 27.6486 54.1574 27.4107 53.2844 27.924C53.2424 27.948 53.2017 27.9745 53.1626 28.0033C52.2644 28.6168 51.6348 29.8563 51.1983 30.8078C49.9391 33.5038 49.2172 36.2666 48.5037 39.1045C48.3694 39.6512 48.235 40.1979 48.1091 40.7488L44.7723 51.5996L40.0672 61.9161C38.3828 64.0775 36.227 65.8307 33.7624 67.0439C31.2978 68.2567 28.5884 68.8982 25.8384 68.919C14.4092 69.1611 8.98635 58.9029 8.98635 58.9029C2.4764 48.2859 0.558238 34.2801 0.100734 29.8021C0.00419694 28.8714 5.46883e-07 28.3163 5.46883e-07 28.3163C-0.000529528 26.9137 0.384287 25.5375 1.1129 24.3365C1.84152 23.1354 2.88626 22.155 4.13432 21.5012C5.4248 20.851 6.86085 20.5393 8.30644 20.5956C9.65133 20.6515 10.9599 21.0464 12.1092 21.7433C13.0022 22.2747 13.7742 22.9854 14.3757 23.83C15.4502 25.3491 15.6936 27.2396 15.9077 29.0467C16.3522 33.0097 17.1314 36.9284 18.2372 40.7613Z" fill="url(#paint6_radial_4497_18469)"/>
<path d="M18.2372 40.7613C19.1167 43.8355 20.3151 46.8104 21.8132 49.6381C22.4974 50.8901 23.1816 52.1421 24.424 52.9309C24.6392 53.0654 24.8764 53.1614 25.1249 53.2147C26.9549 53.6028 27.9581 52.138 28.6045 50.7983C29.5691 48.6964 30.3485 46.5153 30.934 44.2795C31.0473 43.8621 31.1564 43.4448 31.2655 43.0275C31.4754 42.2304 31.6852 41.4249 31.8657 40.6194L39.9413 19.1683C41.6188 16.9469 43.7935 15.1443 46.293 13.9035C48.7924 12.6626 51.5484 12.0175 54.3421 12.0193C58.3652 11.9947 62.2766 13.3343 65.4313 15.8171C70.7115 19.7901 73.8552 27.6152 73.8552 27.6152C74.3136 28.634 74.5495 29.7377 74.5478 30.8537C74.5457 31.8874 74.3388 32.9105 73.9388 33.8646C73.5392 34.8187 72.9541 35.6852 72.2175 36.4145C71.4808 37.1439 70.607 37.7218 69.6458 38.1153C68.6846 38.5088 67.6546 38.7102 66.6149 38.708C65.459 38.7073 64.3169 38.4538 63.2705 37.9655C62.2237 37.4773 61.2978 36.7662 60.5583 35.8827L60.4827 35.7908C59.9752 35.1096 59.5522 34.3697 59.2235 33.5873C58.7883 32.6052 58.3005 31.6468 57.7629 30.716C57.4774 30.2361 57.1585 29.7812 56.8311 29.3305C56.5482 28.9276 56.2136 28.5629 55.8363 28.2454C55.0934 27.6486 54.1574 27.4107 53.2844 27.924C53.2424 27.948 53.2017 27.9745 53.1626 28.0033C52.2644 28.6168 51.6348 29.8563 51.1983 30.8078C49.9391 33.5038 49.2172 36.2666 48.5037 39.1045C48.3694 39.6512 48.235 40.1979 48.1091 40.7488L44.7723 51.5996L40.0672 61.9161C38.3828 64.0775 36.227 65.8307 33.7624 67.0439C31.2978 68.2567 28.5884 68.8982 25.8384 68.919C14.4092 69.1611 8.98635 58.9029 8.98635 58.9029C2.4764 48.2859 0.558238 34.2801 0.100734 29.8021C0.00419694 28.8714 5.46883e-07 28.3163 5.46883e-07 28.3163C-0.000529528 26.9137 0.384287 25.5375 1.1129 24.3365C1.84152 23.1354 2.88626 22.155 4.13432 21.5012C5.4248 20.851 6.86085 20.5393 8.30644 20.5956C9.65133 20.6515 10.9599 21.0464 12.1092 21.7433C13.0022 22.2747 13.7742 22.9854 14.3757 23.83C15.4502 25.3491 15.6936 27.2396 15.9077 29.0467C16.3522 33.0097 17.1314 36.9284 18.2372 40.7613Z" fill="url(#paint7_radial_4497_18469)"/>
<path d="M18.2372 40.7613C19.1167 43.8355 20.3151 46.8104 21.8132 49.6381C22.4974 50.8901 23.1816 52.1421 24.424 52.9309C24.6392 53.0654 24.8764 53.1614 25.1249 53.2147C26.9549 53.6028 27.9581 52.138 28.6045 50.7983C29.5691 48.6964 30.3485 46.5153 30.934 44.2795C31.0473 43.8621 31.1564 43.4448 31.2655 43.0275C31.4754 42.2304 31.6852 41.4249 31.8657 40.6194L39.9413 19.1683C41.6188 16.9469 43.7935 15.1443 46.293 13.9035C48.7924 12.6626 51.5484 12.0175 54.3421 12.0193C58.3652 11.9947 62.2766 13.3343 65.4313 15.8171C70.7115 19.7901 73.8552 27.6152 73.8552 27.6152C74.3136 28.634 74.5495 29.7377 74.5478 30.8537C74.5457 31.8874 74.3388 32.9105 73.9388 33.8646C73.5392 34.8187 72.9541 35.6852 72.2175 36.4145C71.4808 37.1439 70.607 37.7218 69.6458 38.1153C68.6846 38.5088 67.6546 38.7102 66.6149 38.708C65.459 38.7073 64.3169 38.4538 63.2705 37.9655C62.2237 37.4773 61.2978 36.7662 60.5583 35.8827L60.4827 35.7908C59.9752 35.1096 59.5522 34.3697 59.2235 33.5873C58.7883 32.6052 58.3005 31.6468 57.7629 30.716C57.4774 30.2361 57.1585 29.7812 56.8311 29.3305C56.5482 28.9276 56.2136 28.5629 55.8363 28.2454C55.0934 27.6486 54.1574 27.4107 53.2844 27.924C53.2424 27.948 53.2017 27.9745 53.1626 28.0033C52.2644 28.6168 51.6348 29.8563 51.1983 30.8078C49.9391 33.5038 49.2172 36.2666 48.5037 39.1045C48.3694 39.6512 48.235 40.1979 48.1091 40.7488L44.7723 51.5996L40.0672 61.9161C38.3828 64.0775 36.227 65.8307 33.7624 67.0439C31.2978 68.2567 28.5884 68.8982 25.8384 68.919C14.4092 69.1611 8.98635 58.9029 8.98635 58.9029C2.4764 48.2859 0.558238 34.2801 0.100734 29.8021C0.00419694 28.8714 5.46883e-07 28.3163 5.46883e-07 28.3163C-0.000529528 26.9137 0.384287 25.5375 1.1129 24.3365C1.84152 23.1354 2.88626 22.155 4.13432 21.5012C5.4248 20.851 6.86085 20.5393 8.30644 20.5956C9.65133 20.6515 10.9599 21.0464 12.1092 21.7433C13.0022 22.2747 13.7742 22.9854 14.3757 23.83C15.4502 25.3491 15.6936 27.2396 15.9077 29.0467C16.3522 33.0097 17.1314 36.9284 18.2372 40.7613Z" fill="url(#paint8_radial_4497_18469)"/>
<path d="M18.2372 40.7613C19.1167 43.8355 20.3151 46.8104 21.8132 49.6381C22.4974 50.8901 23.1816 52.1421 24.424 52.9309C24.6392 53.0654 24.8764 53.1614 25.1249 53.2147C26.9549 53.6028 27.9581 52.138 28.6045 50.7983C29.5691 48.6964 30.3485 46.5153 30.934 44.2795C31.0473 43.8621 31.1564 43.4448 31.2655 43.0275C31.4754 42.2304 31.6852 41.4249 31.8657 40.6194L39.9413 19.1683C41.6188 16.9469 43.7935 15.1443 46.293 13.9035C48.7924 12.6626 51.5484 12.0175 54.3421 12.0193C58.3652 11.9947 62.2766 13.3343 65.4313 15.8171C70.7115 19.7901 73.8552 27.6152 73.8552 27.6152C74.3136 28.634 74.5495 29.7377 74.5478 30.8537C74.5457 31.8874 74.3388 32.9105 73.9388 33.8646C73.5392 34.8187 72.9541 35.6852 72.2175 36.4145C71.4808 37.1439 70.607 37.7218 69.6458 38.1153C68.6846 38.5088 67.6546 38.7102 66.6149 38.708C65.459 38.7073 64.3169 38.4538 63.2705 37.9655C62.2237 37.4773 61.2978 36.7662 60.5583 35.8827L60.4827 35.7908C59.9752 35.1096 59.5522 34.3697 59.2235 33.5873C58.7883 32.6052 58.3005 31.6468 57.7629 30.716C57.4774 30.2361 57.1585 29.7812 56.8311 29.3305C56.5482 28.9276 56.2136 28.5629 55.8363 28.2454C55.0934 27.6486 54.1574 27.4107 53.2844 27.924C53.2424 27.948 53.2017 27.9745 53.1626 28.0033C52.2644 28.6168 51.6348 29.8563 51.1983 30.8078C49.9391 33.5038 49.2172 36.2666 48.5037 39.1045C48.3694 39.6512 48.235 40.1979 48.1091 40.7488L44.7723 51.5996L40.0672 61.9161C38.3828 64.0775 36.227 65.8307 33.7624 67.0439C31.2978 68.2567 28.5884 68.8982 25.8384 68.919C14.4092 69.1611 8.98635 58.9029 8.98635 58.9029C2.4764 48.2859 0.558238 34.2801 0.100734 29.8021C0.00419694 28.8714 5.46883e-07 28.3163 5.46883e-07 28.3163C-0.000529528 26.9137 0.384287 25.5375 1.1129 24.3365C1.84152 23.1354 2.88626 22.155 4.13432 21.5012C5.4248 20.851 6.86085 20.5393 8.30644 20.5956C9.65133 20.6515 10.9599 21.0464 12.1092 21.7433C13.0022 22.2747 13.7742 22.9854 14.3757 23.83C15.4502 25.3491 15.6936 27.2396 15.9077 29.0467C16.3522 33.0097 17.1314 36.9284 18.2372 40.7613Z" fill="url(#paint9_radial_4497_18469)"/>
<path d="M18.2372 40.7613C19.1167 43.8355 20.3151 46.8104 21.8132 49.6381C22.4974 50.8901 23.1816 52.1421 24.424 52.9309C24.6392 53.0654 24.8764 53.1614 25.1249 53.2147C26.9549 53.6028 27.9581 52.138 28.6045 50.7983C29.5691 48.6964 30.3485 46.5153 30.934 44.2795C31.0473 43.8621 31.1564 43.4448 31.2655 43.0275C31.4754 42.2304 31.6852 41.4249 31.8657 40.6194L39.9413 19.1683C41.6188 16.9469 43.7935 15.1443 46.293 13.9035C48.7924 12.6626 51.5484 12.0175 54.3421 12.0193C58.3652 11.9947 62.2766 13.3343 65.4313 15.8171C70.7115 19.7901 73.8552 27.6152 73.8552 27.6152C74.3136 28.634 74.5495 29.7377 74.5478 30.8537C74.5457 31.8874 74.3388 32.9105 73.9388 33.8646C73.5392 34.8187 72.9541 35.6852 72.2175 36.4145C71.4808 37.1439 70.607 37.7218 69.6458 38.1153C68.6846 38.5088 67.6546 38.7102 66.6149 38.708C65.459 38.7073 64.3169 38.4538 63.2705 37.9655C62.2237 37.4773 61.2978 36.7662 60.5583 35.8827L60.4827 35.7908C59.9752 35.1096 59.5522 34.3697 59.2235 33.5873C58.7883 32.6052 58.3005 31.6468 57.7629 30.716C57.4774 30.2361 57.1585 29.7812 56.8311 29.3305C56.5482 28.9276 56.2136 28.5629 55.8363 28.2454C55.0934 27.6486 54.1574 27.4107 53.2844 27.924C53.2424 27.948 53.2017 27.9745 53.1626 28.0033C52.2644 28.6168 51.6348 29.8563 51.1983 30.8078C49.9391 33.5038 49.2172 36.2666 48.5037 39.1045C48.3694 39.6512 48.235 40.1979 48.1091 40.7488L44.7723 51.5996L40.0672 61.9161C38.3828 64.0775 36.227 65.8307 33.7624 67.0439C31.2978 68.2567 28.5884 68.8982 25.8384 68.919C14.4092 69.1611 8.98635 58.9029 8.98635 58.9029C2.4764 48.2859 0.558238 34.2801 0.100734 29.8021C0.00419694 28.8714 5.46883e-07 28.3163 5.46883e-07 28.3163C-0.000529528 26.9137 0.384287 25.5375 1.1129 24.3365C1.84152 23.1354 2.88626 22.155 4.13432 21.5012C5.4248 20.851 6.86085 20.5393 8.30644 20.5956C9.65133 20.6515 10.9599 21.0464 12.1092 21.7433C13.0022 22.2747 13.7742 22.9854 14.3757 23.83C15.4502 25.3491 15.6936 27.2396 15.9077 29.0467C16.3522 33.0097 17.1314 36.9284 18.2372 40.7613Z" fill="url(#paint10_radial_4497_18469)"/>
<path d="M18.2372 40.7613C19.1167 43.8355 20.3151 46.8104 21.8132 49.6381C22.4974 50.8901 23.1816 52.1421 24.424 52.9309C24.6392 53.0654 24.8764 53.1614 25.1249 53.2147C26.9549 53.6028 27.9581 52.138 28.6045 50.7983C29.5691 48.6964 30.3485 46.5153 30.934 44.2795C31.0473 43.8621 31.1564 43.4448 31.2655 43.0275C31.4754 42.2304 31.6852 41.4249 31.8657 40.6194L39.9413 19.1683C41.6188 16.9469 43.7935 15.1443 46.293 13.9035C48.7924 12.6626 51.5484 12.0175 54.3421 12.0193C58.3652 11.9947 62.2766 13.3343 65.4313 15.8171C70.7115 19.7901 73.8552 27.6152 73.8552 27.6152C74.3136 28.634 74.5495 29.7377 74.5478 30.8537C74.5457 31.8874 74.3388 32.9105 73.9388 33.8646C73.5392 34.8187 72.9541 35.6852 72.2175 36.4145C71.4808 37.1439 70.607 37.7218 69.6458 38.1153C68.6846 38.5088 67.6546 38.7102 66.6149 38.708C65.459 38.7073 64.3169 38.4538 63.2705 37.9655C62.2237 37.4773 61.2978 36.7662 60.5583 35.8827L60.4827 35.7908C59.9752 35.1096 59.5522 34.3697 59.2235 33.5873C58.7883 32.6052 58.3005 31.6468 57.7629 30.716C57.4774 30.2361 57.1585 29.7812 56.8311 29.3305C56.5482 28.9276 56.2136 28.5629 55.8363 28.2454C55.0934 27.6486 54.1574 27.4107 53.2844 27.924C53.2424 27.948 53.2017 27.9745 53.1626 28.0033C52.2644 28.6168 51.6348 29.8563 51.1983 30.8078C49.9391 33.5038 49.2172 36.2666 48.5037 39.1045C48.3694 39.6512 48.235 40.1979 48.1091 40.7488L44.7723 51.5996L40.0672 61.9161C38.3828 64.0775 36.227 65.8307 33.7624 67.0439C31.2978 68.2567 28.5884 68.8982 25.8384 68.919C14.4092 69.1611 8.98635 58.9029 8.98635 58.9029C2.4764 48.2859 0.558238 34.2801 0.100734 29.8021C0.00419694 28.8714 5.46883e-07 28.3163 5.46883e-07 28.3163C-0.000529528 26.9137 0.384287 25.5375 1.1129 24.3365C1.84152 23.1354 2.88626 22.155 4.13432 21.5012C5.4248 20.851 6.86085 20.5393 8.30644 20.5956C9.65133 20.6515 10.9599 21.0464 12.1092 21.7433C13.0022 22.2747 13.7742 22.9854 14.3757 23.83C15.4502 25.3491 15.6936 27.2396 15.9077 29.0467C16.3522 33.0097 17.1314 36.9284 18.2372 40.7613Z" fill="url(#paint11_radial_4497_18469)"/>
<path d="M18.2372 40.7613C19.1167 43.8355 20.3151 46.8104 21.8132 49.6381C22.4974 50.8901 23.1816 52.1421 24.424 52.9309C24.6392 53.0654 24.8764 53.1614 25.1249 53.2147C26.9549 53.6028 27.9581 52.138 28.6045 50.7983C29.5691 48.6964 30.3485 46.5153 30.934 44.2795C31.0473 43.8621 31.1564 43.4448 31.2655 43.0275C31.4754 42.2304 31.6852 41.4249 31.8657 40.6194L39.9413 19.1683C41.6188 16.9469 43.7935 15.1443 46.293 13.9035C48.7924 12.6626 51.5484 12.0175 54.3421 12.0193C58.3652 11.9947 62.2766 13.3343 65.4313 15.8171C70.7115 19.7901 73.8552 27.6152 73.8552 27.6152C74.3136 28.634 74.5495 29.7377 74.5478 30.8537C74.5457 31.8874 74.3388 32.9105 73.9388 33.8646C73.5392 34.8187 72.9541 35.6852 72.2175 36.4145C71.4808 37.1439 70.607 37.7218 69.6458 38.1153C68.6846 38.5088 67.6546 38.7102 66.6149 38.708C65.459 38.7073 64.3169 38.4538 63.2705 37.9655C62.2237 37.4773 61.2978 36.7662 60.5583 35.8827L60.4827 35.7908C59.9752 35.1096 59.5522 34.3697 59.2235 33.5873C58.7883 32.6052 58.3005 31.6468 57.7629 30.716C57.4774 30.2361 57.1585 29.7812 56.8311 29.3305C56.5482 28.9276 56.2136 28.5629 55.8363 28.2454C55.0934 27.6486 54.1574 27.4107 53.2844 27.924C53.2424 27.948 53.2017 27.9745 53.1626 28.0033C52.2644 28.6168 51.6348 29.8563 51.1983 30.8078C49.9391 33.5038 49.2172 36.2666 48.5037 39.1045C48.3694 39.6512 48.235 40.1979 48.1091 40.7488L44.7723 51.5996L40.0672 61.9161C38.3828 64.0775 36.227 65.8307 33.7624 67.0439C31.2978 68.2567 28.5884 68.8982 25.8384 68.919C14.4092 69.1611 8.98635 58.9029 8.98635 58.9029C2.4764 48.2859 0.558238 34.2801 0.100734 29.8021C0.00419694 28.8714 5.46883e-07 28.3163 5.46883e-07 28.3163C-0.000529528 26.9137 0.384287 25.5375 1.1129 24.3365C1.84152 23.1354 2.88626 22.155 4.13432 21.5012C5.4248 20.851 6.86085 20.5393 8.30644 20.5956C9.65133 20.6515 10.9599 21.0464 12.1092 21.7433C13.0022 22.2747 13.7742 22.9854 14.3757 23.83C15.4502 25.3491 15.6936 27.2396 15.9077 29.0467C16.3522 33.0097 17.1314 36.9284 18.2372 40.7613Z" fill="url(#paint12_radial_4497_18469)"/>
<path d="M18.2372 40.7613C19.1167 43.8355 20.3151 46.8104 21.8132 49.6381C22.4974 50.8901 23.1816 52.1421 24.424 52.9309C24.6392 53.0654 24.8764 53.1614 25.1249 53.2147C26.9549 53.6028 27.9581 52.138 28.6045 50.7983C29.5691 48.6964 30.3485 46.5153 30.934 44.2795C31.0473 43.8621 31.1564 43.4448 31.2655 43.0275C31.4754 42.2304 31.6852 41.4249 31.8657 40.6194L39.9413 19.1683C41.6188 16.9469 43.7935 15.1443 46.293 13.9035C48.7924 12.6626 51.5484 12.0175 54.3421 12.0193C58.3652 11.9947 62.2766 13.3343 65.4313 15.8171C70.7115 19.7901 73.8552 27.6152 73.8552 27.6152C74.3136 28.634 74.5495 29.7377 74.5478 30.8537C74.5457 31.8874 74.3388 32.9105 73.9388 33.8646C73.5392 34.8187 72.9541 35.6852 72.2175 36.4145C71.4808 37.1439 70.607 37.7218 69.6458 38.1153C68.6846 38.5088 67.6546 38.7102 66.6149 38.708C65.459 38.7073 64.3169 38.4538 63.2705 37.9655C62.2237 37.4773 61.2978 36.7662 60.5583 35.8827L60.4827 35.7908C59.9752 35.1096 59.5522 34.3697 59.2235 33.5873C58.7883 32.6052 58.3005 31.6468 57.7629 30.716C57.4774 30.2361 57.1585 29.7812 56.8311 29.3305C56.5482 28.9276 56.2136 28.5629 55.8363 28.2454C55.0934 27.6486 54.1574 27.4107 53.2844 27.924C53.2424 27.948 53.2017 27.9745 53.1626 28.0033C52.2644 28.6168 51.6348 29.8563 51.1983 30.8078C49.9391 33.5038 49.2172 36.2666 48.5037 39.1045C48.3694 39.6512 48.235 40.1979 48.1091 40.7488L44.7723 51.5996L40.0672 61.9161C38.3828 64.0775 36.227 65.8307 33.7624 67.0439C31.2978 68.2567 28.5884 68.8982 25.8384 68.919C14.4092 69.1611 8.98635 58.9029 8.98635 58.9029C2.4764 48.2859 0.558238 34.2801 0.100734 29.8021C0.00419694 28.8714 5.46883e-07 28.3163 5.46883e-07 28.3163C-0.000529528 26.9137 0.384287 25.5375 1.1129 24.3365C1.84152 23.1354 2.88626 22.155 4.13432 21.5012C5.4248 20.851 6.86085 20.5393 8.30644 20.5956C9.65133 20.6515 10.9599 21.0464 12.1092 21.7433C13.0022 22.2747 13.7742 22.9854 14.3757 23.83C15.4502 25.3491 15.6936 27.2396 15.9077 29.0467C16.3522 33.0097 17.1314 36.9284 18.2372 40.7613Z" fill="url(#paint13_radial_4497_18469)"/>
<path d="M18.2372 40.7613C19.1167 43.8355 20.3151 46.8104 21.8132 49.6381C22.4974 50.8901 23.1816 52.1421 24.424 52.9309C24.6392 53.0654 24.8764 53.1614 25.1249 53.2147C26.9549 53.6028 27.9581 52.138 28.6045 50.7983C29.5691 48.6964 30.3485 46.5153 30.934 44.2795C31.0473 43.8621 31.1564 43.4448 31.2655 43.0275C31.4754 42.2304 31.6852 41.4249 31.8657 40.6194L39.9413 19.1683C41.6188 16.9469 43.7935 15.1443 46.293 13.9035C48.7924 12.6626 51.5484 12.0175 54.3421 12.0193C58.3652 11.9947 62.2766 13.3343 65.4313 15.8171C70.7115 19.7901 73.8552 27.6152 73.8552 27.6152C74.3136 28.634 74.5495 29.7377 74.5478 30.8537C74.5457 31.8874 74.3388 32.9105 73.9388 33.8646C73.5392 34.8187 72.9541 35.6852 72.2175 36.4145C71.4808 37.1439 70.607 37.7218 69.6458 38.1153C68.6846 38.5088 67.6546 38.7102 66.6149 38.708C65.459 38.7073 64.3169 38.4538 63.2705 37.9655C62.2237 37.4773 61.2978 36.7662 60.5583 35.8827L60.4827 35.7908C59.9752 35.1096 59.5522 34.3697 59.2235 33.5873C58.7883 32.6052 58.3005 31.6468 57.7629 30.716C57.4774 30.2361 57.1585 29.7812 56.8311 29.3305C56.5482 28.9276 56.2136 28.5629 55.8363 28.2454C55.0934 27.6486 54.1574 27.4107 53.2844 27.924C53.2424 27.948 53.2017 27.9745 53.1626 28.0033C52.2644 28.6168 51.6348 29.8563 51.1983 30.8078C49.9391 33.5038 49.2172 36.2666 48.5037 39.1045C48.3694 39.6512 48.235 40.1979 48.1091 40.7488L44.7723 51.5996L40.0672 61.9161C38.3828 64.0775 36.227 65.8307 33.7624 67.0439C31.2978 68.2567 28.5884 68.8982 25.8384 68.919C14.4092 69.1611 8.98635 58.9029 8.98635 58.9029C2.4764 48.2859 0.558238 34.2801 0.100734 29.8021C0.00419694 28.8714 5.46883e-07 28.3163 5.46883e-07 28.3163C-0.000529528 26.9137 0.384287 25.5375 1.1129 24.3365C1.84152 23.1354 2.88626 22.155 4.13432 21.5012C5.4248 20.851 6.86085 20.5393 8.30644 20.5956C9.65133 20.6515 10.9599 21.0464 12.1092 21.7433C13.0022 22.2747 13.7742 22.9854 14.3757 23.83C15.4502 25.3491 15.6936 27.2396 15.9077 29.0467C16.3522 33.0097 17.1314 36.9284 18.2372 40.7613Z" fill="url(#paint14_radial_4497_18469)"/>
<path d="M18.2372 40.7613C19.1167 43.8355 20.3151 46.8104 21.8132 49.6381C22.4974 50.8901 23.1816 52.1421 24.424 52.9309C24.6392 53.0654 24.8764 53.1614 25.1249 53.2147C26.9549 53.6028 27.9581 52.138 28.6045 50.7983C29.5691 48.6964 30.3485 46.5153 30.934 44.2795C31.0473 43.8621 31.1564 43.4448 31.2655 43.0275C31.4754 42.2304 31.6852 41.4249 31.8657 40.6194L39.9413 19.1683C41.6188 16.9469 43.7935 15.1443 46.293 13.9035C48.7924 12.6626 51.5484 12.0175 54.3421 12.0193C58.3652 11.9947 62.2766 13.3343 65.4313 15.8171C70.7115 19.7901 73.8552 27.6152 73.8552 27.6152C74.3136 28.634 74.5495 29.7377 74.5478 30.8537C74.5457 31.8874 74.3388 32.9105 73.9388 33.8646C73.5392 34.8187 72.9541 35.6852 72.2175 36.4145C71.4808 37.1439 70.607 37.7218 69.6458 38.1153C68.6846 38.5088 67.6546 38.7102 66.6149 38.708C65.459 38.7073 64.3169 38.4538 63.2705 37.9655C62.2237 37.4773 61.2978 36.7662 60.5583 35.8827L60.4827 35.7908C59.9752 35.1096 59.5522 34.3697 59.2235 33.5873C58.7883 32.6052 58.3005 31.6468 57.7629 30.716C57.4774 30.2361 57.1585 29.7812 56.8311 29.3305C56.5482 28.9276 56.2136 28.5629 55.8363 28.2454C55.0934 27.6486 54.1574 27.4107 53.2844 27.924C53.2424 27.948 53.2017 27.9745 53.1626 28.0033C52.2644 28.6168 51.6348 29.8563 51.1983 30.8078C49.9391 33.5038 49.2172 36.2666 48.5037 39.1045C48.3694 39.6512 48.235 40.1979 48.1091 40.7488L44.7723 51.5996L40.0672 61.9161C38.3828 64.0775 36.227 65.8307 33.7624 67.0439C31.2978 68.2567 28.5884 68.8982 25.8384 68.919C14.4092 69.1611 8.98635 58.9029 8.98635 58.9029C2.4764 48.2859 0.558238 34.2801 0.100734 29.8021C0.00419694 28.8714 5.46883e-07 28.3163 5.46883e-07 28.3163C-0.000529528 26.9137 0.384287 25.5375 1.1129 24.3365C1.84152 23.1354 2.88626 22.155 4.13432 21.5012C5.4248 20.851 6.86085 20.5393 8.30644 20.5956C9.65133 20.6515 10.9599 21.0464 12.1092 21.7433C13.0022 22.2747 13.7742 22.9854 14.3757 23.83C15.4502 25.3491 15.6936 27.2396 15.9077 29.0467C16.3522 33.0097 17.1314 36.9284 18.2372 40.7613Z" fill="url(#paint15_radial_4497_18469)"/>
<path d="M18.2372 40.7613C19.1167 43.8355 20.3151 46.8104 21.8132 49.6381C22.4974 50.8901 23.1816 52.1421 24.424 52.9309C24.6392 53.0654 24.8764 53.1614 25.1249 53.2147C26.9549 53.6028 27.9581 52.138 28.6045 50.7983C29.5691 48.6964 30.3485 46.5153 30.934 44.2795C31.0473 43.8621 31.1564 43.4448 31.2655 43.0275C31.4754 42.2304 31.6852 41.4249 31.8657 40.6194L39.9413 19.1683C41.6188 16.9469 43.7935 15.1443 46.293 13.9035C48.7924 12.6626 51.5484 12.0175 54.3421 12.0193C58.3652 11.9947 62.2766 13.3343 65.4313 15.8171C70.7115 19.7901 73.8552 27.6152 73.8552 27.6152C74.3136 28.634 74.5495 29.7377 74.5478 30.8537C74.5457 31.8874 74.3388 32.9105 73.9388 33.8646C73.5392 34.8187 72.9541 35.6852 72.2175 36.4145C71.4808 37.1439 70.607 37.7218 69.6458 38.1153C68.6846 38.5088 67.6546 38.7102 66.6149 38.708C65.459 38.7073 64.3169 38.4538 63.2705 37.9655C62.2237 37.4773 61.2978 36.7662 60.5583 35.8827L60.4827 35.7908C59.9752 35.1096 59.5522 34.3697 59.2235 33.5873C58.7883 32.6052 58.3005 31.6468 57.7629 30.716C57.4774 30.2361 57.1585 29.7812 56.8311 29.3305C56.5482 28.9276 56.2136 28.5629 55.8363 28.2454C55.0934 27.6486 54.1574 27.4107 53.2844 27.924C53.2424 27.948 53.2017 27.9745 53.1626 28.0033C52.2644 28.6168 51.6348 29.8563 51.1983 30.8078C49.9391 33.5038 49.2172 36.2666 48.5037 39.1045C48.3694 39.6512 48.235 40.1979 48.1091 40.7488L44.7723 51.5996L40.0672 61.9161C38.3828 64.0775 36.227 65.8307 33.7624 67.0439C31.2978 68.2567 28.5884 68.8982 25.8384 68.919C14.4092 69.1611 8.98635 58.9029 8.98635 58.9029C2.4764 48.2859 0.558238 34.2801 0.100734 29.8021C0.00419694 28.8714 5.46883e-07 28.3163 5.46883e-07 28.3163C-0.000529528 26.9137 0.384287 25.5375 1.1129 24.3365C1.84152 23.1354 2.88626 22.155 4.13432 21.5012C5.4248 20.851 6.86085 20.5393 8.30644 20.5956C9.65133 20.6515 10.9599 21.0464 12.1092 21.7433C13.0022 22.2747 13.7742 22.9854 14.3757 23.83C15.4502 25.3491 15.6936 27.2396 15.9077 29.0467C16.3522 33.0097 17.1314 36.9284 18.2372 40.7613Z" fill="url(#paint16_linear_4497_18469)"/>
<path d="M18.2372 40.7613C19.1167 43.8355 20.3151 46.8104 21.8132 49.6381C22.4974 50.8901 23.1816 52.1421 24.424 52.9309C24.6392 53.0654 24.8764 53.1614 25.1249 53.2147C26.9549 53.6028 27.9581 52.138 28.6045 50.7983C29.5691 48.6964 30.3485 46.5153 30.934 44.2795C31.0473 43.8621 31.1564 43.4448 31.2655 43.0275C31.4754 42.2304 31.6852 41.4249 31.8657 40.6194L39.9413 19.1683C41.6188 16.9469 43.7935 15.1443 46.293 13.9035C48.7924 12.6626 51.5484 12.0175 54.3421 12.0193C58.3652 11.9947 62.2766 13.3343 65.4313 15.8171C70.7115 19.7901 73.8552 27.6152 73.8552 27.6152C74.3136 28.634 74.5495 29.7377 74.5478 30.8537C74.5457 31.8874 74.3388 32.9105 73.9388 33.8646C73.5392 34.8187 72.9541 35.6852 72.2175 36.4145C71.4808 37.1439 70.607 37.7218 69.6458 38.1153C68.6846 38.5088 67.6546 38.7102 66.6149 38.708C65.459 38.7073 64.3169 38.4538 63.2705 37.9655C62.2237 37.4773 61.2978 36.7662 60.5583 35.8827L60.4827 35.7908C59.9752 35.1096 59.5522 34.3697 59.2235 33.5873C58.7883 32.6052 58.3005 31.6468 57.7629 30.716C57.4774 30.2361 57.1585 29.7812 56.8311 29.3305C56.5482 28.9276 56.2136 28.5629 55.8363 28.2454C55.0934 27.6486 54.1574 27.4107 53.2844 27.924C53.2424 27.948 53.2017 27.9745 53.1626 28.0033C52.2644 28.6168 51.6348 29.8563 51.1983 30.8078C49.9391 33.5038 49.2172 36.2666 48.5037 39.1045C48.3694 39.6512 48.235 40.1979 48.1091 40.7488L44.7723 51.5996L40.0672 61.9161C38.3828 64.0775 36.227 65.8307 33.7624 67.0439C31.2978 68.2567 28.5884 68.8982 25.8384 68.919C14.4092 69.1611 8.98635 58.9029 8.98635 58.9029C2.4764 48.2859 0.558238 34.2801 0.100734 29.8021C0.00419694 28.8714 5.46883e-07 28.3163 5.46883e-07 28.3163C-0.000529528 26.9137 0.384287 25.5375 1.1129 24.3365C1.84152 23.1354 2.88626 22.155 4.13432 21.5012C5.4248 20.851 6.86085 20.5393 8.30644 20.5956C9.65133 20.6515 10.9599 21.0464 12.1092 21.7433C13.0022 22.2747 13.7742 22.9854 14.3757 23.83C15.4502 25.3491 15.6936 27.2396 15.9077 29.0467C16.3522 33.0097 17.1314 36.9284 18.2372 40.7613Z" fill="url(#paint17_linear_4497_18469)"/>
<path d="M18.2372 40.7613C19.1167 43.8355 20.3151 46.8104 21.8132 49.6381C22.4974 50.8901 23.1816 52.1421 24.424 52.9309C24.6392 53.0654 24.8764 53.1614 25.1249 53.2147C26.9549 53.6028 27.9581 52.138 28.6045 50.7983C29.5691 48.6964 30.3485 46.5153 30.934 44.2795C31.0473 43.8621 31.1564 43.4448 31.2655 43.0275C31.4754 42.2304 31.6852 41.4249 31.8657 40.6194L39.9413 19.1683C41.6188 16.9469 43.7935 15.1443 46.293 13.9035C48.7924 12.6626 51.5484 12.0175 54.3421 12.0193C58.3652 11.9947 62.2766 13.3343 65.4313 15.8171C70.7115 19.7901 73.8552 27.6152 73.8552 27.6152C74.3136 28.634 74.5495 29.7377 74.5478 30.8537C74.5457 31.8874 74.3388 32.9105 73.9388 33.8646C73.5392 34.8187 72.9541 35.6852 72.2175 36.4145C71.4808 37.1439 70.607 37.7218 69.6458 38.1153C68.6846 38.5088 67.6546 38.7102 66.6149 38.708C65.459 38.7073 64.3169 38.4538 63.2705 37.9655C62.2237 37.4773 61.2978 36.7662 60.5583 35.8827L60.4827 35.7908C59.9752 35.1096 59.5522 34.3697 59.2235 33.5873C58.7883 32.6052 58.3005 31.6468 57.7629 30.716C57.4774 30.2361 57.1585 29.7812 56.8311 29.3305C56.5482 28.9276 56.2136 28.5629 55.8363 28.2454C55.0934 27.6486 54.1574 27.4107 53.2844 27.924C53.2424 27.948 53.2017 27.9745 53.1626 28.0033C52.2644 28.6168 51.6348 29.8563 51.1983 30.8078C49.9391 33.5038 49.2172 36.2666 48.5037 39.1045C48.3694 39.6512 48.235 40.1979 48.1091 40.7488L44.7723 51.5996L40.0672 61.9161C38.3828 64.0775 36.227 65.8307 33.7624 67.0439C31.2978 68.2567 28.5884 68.8982 25.8384 68.919C14.4092 69.1611 8.98635 58.9029 8.98635 58.9029C2.4764 48.2859 0.558238 34.2801 0.100734 29.8021C0.00419694 28.8714 5.46883e-07 28.3163 5.46883e-07 28.3163C-0.000529528 26.9137 0.384287 25.5375 1.1129 24.3365C1.84152 23.1354 2.88626 22.155 4.13432 21.5012C5.4248 20.851 6.86085 20.5393 8.30644 20.5956C9.65133 20.6515 10.9599 21.0464 12.1092 21.7433C13.0022 22.2747 13.7742 22.9854 14.3757 23.83C15.4502 25.3491 15.6936 27.2396 15.9077 29.0467C16.3522 33.0097 17.1314 36.9284 18.2372 40.7613Z" fill="url(#paint18_linear_4497_18469)"/>
<path d="M18.2372 40.7613C19.1167 43.8355 20.3151 46.8104 21.8132 49.6381C22.4974 50.8901 23.1816 52.1421 24.424 52.9309C24.6392 53.0654 24.8764 53.1614 25.1249 53.2147C26.9549 53.6028 27.9581 52.138 28.6045 50.7983C29.5691 48.6964 30.3485 46.5153 30.934 44.2795C31.0473 43.8621 31.1564 43.4448 31.2655 43.0275C31.4754 42.2304 31.6852 41.4249 31.8657 40.6194L39.9413 19.1683C41.6188 16.9469 43.7935 15.1443 46.293 13.9035C48.7924 12.6626 51.5484 12.0175 54.3421 12.0193C58.3652 11.9947 62.2766 13.3343 65.4313 15.8171C70.7115 19.7901 73.8552 27.6152 73.8552 27.6152C74.3136 28.634 74.5495 29.7377 74.5478 30.8537C74.5457 31.8874 74.3388 32.9105 73.9388 33.8646C73.5392 34.8187 72.9541 35.6852 72.2175 36.4145C71.4808 37.1439 70.607 37.7218 69.6458 38.1153C68.6846 38.5088 67.6546 38.7102 66.6149 38.708C65.459 38.7073 64.3169 38.4538 63.2705 37.9655C62.2237 37.4773 61.2978 36.7662 60.5583 35.8827L60.4827 35.7908C59.9752 35.1096 59.5522 34.3697 59.2235 33.5873C58.7883 32.6052 58.3005 31.6468 57.7629 30.716C57.4774 30.2361 57.1585 29.7812 56.8311 29.3305C56.5482 28.9276 56.2136 28.5629 55.8363 28.2454C55.0934 27.6486 54.1574 27.4107 53.2844 27.924C53.2424 27.948 53.2017 27.9745 53.1626 28.0033C52.2644 28.6168 51.6348 29.8563 51.1983 30.8078C49.9391 33.5038 49.2172 36.2666 48.5037 39.1045C48.3694 39.6512 48.235 40.1979 48.1091 40.7488L44.7723 51.5996L40.0672 61.9161C38.3828 64.0775 36.227 65.8307 33.7624 67.0439C31.2978 68.2567 28.5884 68.8982 25.8384 68.919C14.4092 69.1611 8.98635 58.9029 8.98635 58.9029C2.4764 48.2859 0.558238 34.2801 0.100734 29.8021C0.00419694 28.8714 5.46883e-07 28.3163 5.46883e-07 28.3163C-0.000529528 26.9137 0.384287 25.5375 1.1129 24.3365C1.84152 23.1354 2.88626 22.155 4.13432 21.5012C5.4248 20.851 6.86085 20.5393 8.30644 20.5956C9.65133 20.6515 10.9599 21.0464 12.1092 21.7433C13.0022 22.2747 13.7742 22.9854 14.3757 23.83C15.4502 25.3491 15.6936 27.2396 15.9077 29.0467C16.3522 33.0097 17.1314 36.9284 18.2372 40.7613Z" fill="url(#paint19_linear_4497_18469)"/>
<path d="M34.808 32.8028L39.9413 19.1726C41.6188 16.9512 43.7936 15.1486 46.2931 13.9078C48.7926 12.6669 51.5485 12.0218 54.3422 12.0236C58.3653 11.999 62.2768 13.3385 65.4314 15.8214C70.7116 19.7944 73.8554 27.6195 73.8554 27.6195C74.3137 28.6383 74.5496 29.742 74.5479 30.858C74.5458 31.8917 74.3389 32.9147 73.9389 33.8689C73.5389 34.823 72.9542 35.6894 72.2176 36.4188C71.481 37.1481 70.6071 37.7261 69.6455 38.1196C68.6843 38.5131 67.6547 38.7145 66.6151 38.7123C65.4591 38.7116 64.3171 38.4581 63.2707 37.9698C62.2239 37.4816 61.298 36.7705 60.5584 35.8869L60.4828 35.7951C59.975 35.1139 59.5523 34.374 59.2237 33.5916C58.788 32.6095 58.3007 31.651 57.763 30.7203C57.4776 30.2404 57.1586 29.7855 56.8312 29.3347C56.5483 28.9318 56.2138 28.5671 55.8365 28.2497C55.0935 27.6529 54.1575 27.415 53.2845 27.9283C53.2425 27.9523 53.2018 27.9788 53.1628 28.0076C52.2646 28.6211 51.635 29.8606 51.1985 30.8121C49.9393 33.5081 49.2174 36.2709 48.5038 39.1088C48.3695 39.6555 48.2352 40.2022 48.1093 40.7531L44.7724 51.6039L34.808 32.8028Z" fill="url(#paint20_linear_4497_18469)"/>
<path d="M72.1007 20.6291C71.4338 20.6277 70.7698 20.7104 70.1238 20.8753C71.5962 22.9907 72.8462 25.2506 73.8552 27.6195C74.3135 28.6383 74.5494 29.7421 74.5478 30.8581C74.5457 31.8917 74.3387 32.9148 73.9387 33.8689C73.5387 34.823 72.9541 35.6895 72.2174 36.4188C71.4808 37.1482 70.6069 37.7261 69.6453 38.1196C68.6842 38.5132 67.6546 38.7146 66.6149 38.7123C65.2096 38.7097 63.8304 38.3352 62.6191 37.6273L61.8048 40.6196C60.3274 45.5316 59.2865 47.4305 59.2865 47.4305C58.7131 48.7623 58.0306 50.045 57.2466 51.2659C56.7051 52.063 56.0126 52.8643 55.064 53.1689C54.7341 53.2832 54.3815 53.3175 54.0357 53.2691C53.6613 53.224 53.2999 53.1033 52.9737 52.9143C52.35 52.4479 51.8539 51.8339 51.5299 51.1281C51.1286 50.3446 50.7685 49.5409 50.4512 48.7201C49.7502 47.0257 48.6673 42.8523 48.6673 42.8523L47.5467 38.4828L46.426 34.0799L45.6285 31.1878C43.5299 23.6548 40.6253 19.9489 40.6253 19.9489C38.3424 16.7122 35.1081 14.2572 31.3661 12.9209C27.0261 11.3726 22.4721 12.2448 22.4721 12.2448C15.3367 13.6387 11.5885 18.5049 9.939 20.8461C10.694 21.0422 11.4164 21.3458 12.0838 21.7476C12.9769 22.2791 13.7488 22.9897 14.3503 23.8343C15.4248 25.3534 15.6683 27.2439 15.8823 29.051C16.3326 32.9675 17.1104 36.8399 18.2076 40.6279C20.6253 32.6568 23.5256 28.9425 23.5256 28.9425C23.8497 28.5421 24.2383 28.198 24.6756 27.9242C24.9033 27.7852 25.1579 27.6956 25.4228 27.6613C25.9137 27.6143 26.4061 27.7334 26.8205 27.9993C26.8963 28.049 26.9679 28.1048 27.0345 28.1662C27.4136 28.5005 27.7392 28.8903 27.9999 29.3223C28.6037 30.3954 29.1269 31.5113 29.5655 32.661C30.4721 35.1984 31.2444 38.2992 31.2444 38.2992L33.5529 47.3471C35.2318 53.4986 36.6547 56.4868 36.6547 56.4868C40.1594 64.4662 45.5194 66.7115 45.5194 66.7115C48.1288 68.0992 51.0308 68.8541 53.9895 68.9151C56.8138 68.9914 59.6151 68.3917 62.1574 67.1664C64.9448 65.8034 67.3901 63.8369 69.3138 61.4113C70.6107 59.9173 72.5205 56.2781 72.5205 56.2781C74.6263 52.106 76.2796 47.7229 77.4523 43.2029C78.2015 40.387 78.8025 37.5341 79.2529 34.6558C79.4796 33.2285 79.6936 31.7929 79.8657 30.3531C80.0802 28.9897 80.0374 27.5985 79.7398 26.2507C79.6773 26.0083 79.6004 25.77 79.5089 25.537C78.8344 23.8456 77.5837 22.4438 75.9748 21.5765C74.7824 20.9462 73.451 20.6206 72.1007 20.6291Z" fill="url(#paint21_linear_4497_18469)"/>
<path d="M72.1007 20.6291C71.4338 20.6277 70.7698 20.7104 70.1238 20.8753C71.5962 22.9907 72.8462 25.2506 73.8552 27.6195C74.3135 28.6383 74.5494 29.7421 74.5478 30.8581C74.5457 31.8917 74.3387 32.9148 73.9387 33.8689C73.5387 34.823 72.9541 35.6895 72.2174 36.4188C71.4808 37.1482 70.6069 37.7261 69.6453 38.1196C68.6842 38.5132 67.6546 38.7146 66.6149 38.7123C65.2096 38.7097 63.8304 38.3352 62.6191 37.6273L61.8048 40.6196C60.3274 45.5316 59.2865 47.4305 59.2865 47.4305C58.7131 48.7623 58.0306 50.045 57.2466 51.2659C56.7051 52.063 56.0126 52.8643 55.064 53.1689C54.7341 53.2832 54.3815 53.3175 54.0357 53.2691C53.6613 53.224 53.2999 53.1033 52.9737 52.9143C52.35 52.4479 51.8539 51.8339 51.5299 51.1281C51.1286 50.3446 50.7685 49.5409 50.4512 48.7201C49.7502 47.0257 48.6673 42.8523 48.6673 42.8523L47.5467 38.4828L46.426 34.0799L45.6285 31.1878C43.5299 23.6548 40.6253 19.9489 40.6253 19.9489C38.3424 16.7122 35.1081 14.2572 31.3661 12.9209C27.0261 11.3726 22.4721 12.2448 22.4721 12.2448C15.3367 13.6387 11.5885 18.5049 9.939 20.8461C10.694 21.0422 11.4164 21.3458 12.0838 21.7476C12.9769 22.2791 13.7488 22.9897 14.3503 23.8343C15.4248 25.3534 15.6683 27.2439 15.8823 29.051C16.3326 32.9675 17.1104 36.8399 18.2076 40.6279C20.6253 32.6568 23.5256 28.9425 23.5256 28.9425C23.8497 28.5421 24.2383 28.198 24.6756 27.9242C24.9033 27.7852 25.1579 27.6956 25.4228 27.6613C25.9137 27.6143 26.4061 27.7334 26.8205 27.9993C26.8963 28.049 26.9679 28.1048 27.0345 28.1662C27.4136 28.5005 27.7392 28.8903 27.9999 29.3223C28.6037 30.3954 29.1269 31.5113 29.5655 32.661C30.4721 35.1984 31.2444 38.2992 31.2444 38.2992L33.5529 47.3471C35.2318 53.4986 36.6547 56.4868 36.6547 56.4868C40.1594 64.4662 45.5194 66.7115 45.5194 66.7115C48.1288 68.0992 51.0308 68.8541 53.9895 68.9151C56.8138 68.9914 59.6151 68.3917 62.1574 67.1664C64.9448 65.8034 67.3901 63.8369 69.3138 61.4113C70.6107 59.9173 72.5205 56.2781 72.5205 56.2781C74.6263 52.106 76.2796 47.7229 77.4523 43.2029C78.2015 40.387 78.8025 37.5341 79.2529 34.6558C79.4796 33.2285 79.6936 31.7929 79.8657 30.3531C80.0802 28.9897 80.0374 27.5985 79.7398 26.2507C79.6773 26.0083 79.6004 25.77 79.5089 25.537C78.8344 23.8456 77.5837 22.4438 75.9748 21.5765C74.7824 20.9462 73.451 20.6206 72.1007 20.6291Z" fill="url(#paint22_radial_4497_18469)"/>
<path d="M72.1007 20.6291C71.4338 20.6277 70.7698 20.7104 70.1238 20.8753C71.5962 22.9907 72.8462 25.2506 73.8552 27.6195C74.3135 28.6383 74.5494 29.7421 74.5478 30.8581C74.5457 31.8917 74.3387 32.9148 73.9387 33.8689C73.5387 34.823 72.9541 35.6895 72.2174 36.4188C71.4808 37.1482 70.6069 37.7261 69.6453 38.1196C68.6842 38.5132 67.6546 38.7146 66.6149 38.7123C65.2096 38.7097 63.8304 38.3352 62.6191 37.6273L61.8048 40.6196C60.3274 45.5316 59.2865 47.4305 59.2865 47.4305C58.7131 48.7623 58.0306 50.045 57.2466 51.2659C56.7051 52.063 56.0126 52.8643 55.064 53.1689C54.7341 53.2832 54.3815 53.3175 54.0357 53.2691C53.6613 53.224 53.2999 53.1033 52.9737 52.9143C52.35 52.4479 51.8539 51.8339 51.5299 51.1281C51.1286 50.3446 50.7685 49.5409 50.4512 48.7201C49.7502 47.0257 48.6673 42.8523 48.6673 42.8523L47.5467 38.4828L46.426 34.0799L45.6285 31.1878C43.5299 23.6548 40.6253 19.9489 40.6253 19.9489C38.3424 16.7122 35.1081 14.2572 31.3661 12.9209C27.0261 11.3726 22.4721 12.2448 22.4721 12.2448C15.3367 13.6387 11.5885 18.5049 9.939 20.8461C10.694 21.0422 11.4164 21.3458 12.0838 21.7476C12.9769 22.2791 13.7488 22.9897 14.3503 23.8343C15.4248 25.3534 15.6683 27.2439 15.8823 29.051C16.3326 32.9675 17.1104 36.8399 18.2076 40.6279C20.6253 32.6568 23.5256 28.9425 23.5256 28.9425C23.8497 28.5421 24.2383 28.198 24.6756 27.9242C24.9033 27.7852 25.1579 27.6956 25.4228 27.6613C25.9137 27.6143 26.4061 27.7334 26.8205 27.9993C26.8963 28.049 26.9679 28.1048 27.0345 28.1662C27.4136 28.5005 27.7392 28.8903 27.9999 29.3223C28.6037 30.3954 29.1269 31.5113 29.5655 32.661C30.4721 35.1984 31.2444 38.2992 31.2444 38.2992L33.5529 47.3471C35.2318 53.4986 36.6547 56.4868 36.6547 56.4868C40.1594 64.4662 45.5194 66.7115 45.5194 66.7115C48.1288 68.0992 51.0308 68.8541 53.9895 68.9151C56.8138 68.9914 59.6151 68.3917 62.1574 67.1664C64.9448 65.8034 67.3901 63.8369 69.3138 61.4113C70.6107 59.9173 72.5205 56.2781 72.5205 56.2781C74.6263 52.106 76.2796 47.7229 77.4523 43.2029C78.2015 40.387 78.8025 37.5341 79.2529 34.6558C79.4796 33.2285 79.6936 31.7929 79.8657 30.3531C80.0802 28.9897 80.0374 27.5985 79.7398 26.2507C79.6773 26.0083 79.6004 25.77 79.5089 25.537C78.8344 23.8456 77.5837 22.4438 75.9748 21.5765C74.7824 20.9462 73.451 20.6206 72.1007 20.6291Z" fill="url(#paint23_radial_4497_18469)"/>
<path d="M72.1007 20.6291C71.4338 20.6277 70.7698 20.7104 70.1238 20.8753C71.5962 22.9907 72.8462 25.2506 73.8552 27.6195C74.3135 28.6383 74.5494 29.7421 74.5478 30.8581C74.5457 31.8917 74.3387 32.9148 73.9387 33.8689C73.5387 34.823 72.9541 35.6895 72.2174 36.4188C71.4808 37.1482 70.6069 37.7261 69.6453 38.1196C68.6842 38.5132 67.6546 38.7146 66.6149 38.7123C65.2096 38.7097 63.8304 38.3352 62.6191 37.6273L61.8048 40.6196C60.3274 45.5316 59.2865 47.4305 59.2865 47.4305C58.7131 48.7623 58.0306 50.045 57.2466 51.2659C56.7051 52.063 56.0126 52.8643 55.064 53.1689C54.7341 53.2832 54.3815 53.3175 54.0357 53.2691C53.6613 53.224 53.2999 53.1033 52.9737 52.9143C52.35 52.4479 51.8539 51.8339 51.5299 51.1281C51.1286 50.3446 50.7685 49.5409 50.4512 48.7201C49.7502 47.0257 48.6673 42.8523 48.6673 42.8523L47.5467 38.4828L46.426 34.0799L45.6285 31.1878C43.5299 23.6548 40.6253 19.9489 40.6253 19.9489C38.3424 16.7122 35.1081 14.2572 31.3661 12.9209C27.0261 11.3726 22.4721 12.2448 22.4721 12.2448C15.3367 13.6387 11.5885 18.5049 9.939 20.8461C10.694 21.0422 11.4164 21.3458 12.0838 21.7476C12.9769 22.2791 13.7488 22.9897 14.3503 23.8343C15.4248 25.3534 15.6683 27.2439 15.8823 29.051C16.3326 32.9675 17.1104 36.8399 18.2076 40.6279C20.6253 32.6568 23.5256 28.9425 23.5256 28.9425C23.8497 28.5421 24.2383 28.198 24.6756 27.9242C24.9033 27.7852 25.1579 27.6956 25.4228 27.6613C25.9137 27.6143 26.4061 27.7334 26.8205 27.9993C26.8963 28.049 26.9679 28.1048 27.0345 28.1662C27.4136 28.5005 27.7392 28.8903 27.9999 29.3223C28.6037 30.3954 29.1269 31.5113 29.5655 32.661C30.4721 35.1984 31.2444 38.2992 31.2444 38.2992L33.5529 47.3471C35.2318 53.4986 36.6547 56.4868 36.6547 56.4868C40.1594 64.4662 45.5194 66.7115 45.5194 66.7115C48.1288 68.0992 51.0308 68.8541 53.9895 68.9151C56.8138 68.9914 59.6151 68.3917 62.1574 67.1664C64.9448 65.8034 67.3901 63.8369 69.3138 61.4113C70.6107 59.9173 72.5205 56.2781 72.5205 56.2781C74.6263 52.106 76.2796 47.7229 77.4523 43.2029C78.2015 40.387 78.8025 37.5341 79.2529 34.6558C79.4796 33.2285 79.6936 31.7929 79.8657 30.3531C80.0802 28.9897 80.0374 27.5985 79.7398 26.2507C79.6773 26.0083 79.6004 25.77 79.5089 25.537C78.8344 23.8456 77.5837 22.4438 75.9748 21.5765C74.7824 20.9462 73.451 20.6206 72.1007 20.6291Z" fill="url(#paint24_radial_4497_18469)"/>
<path d="M72.1007 20.6291C71.4338 20.6277 70.7698 20.7104 70.1238 20.8753C71.5962 22.9907 72.8462 25.2506 73.8552 27.6195C74.3135 28.6383 74.5494 29.7421 74.5478 30.8581C74.5457 31.8917 74.3387 32.9148 73.9387 33.8689C73.5387 34.823 72.9541 35.6895 72.2174 36.4188C71.4808 37.1482 70.6069 37.7261 69.6453 38.1196C68.6842 38.5132 67.6546 38.7146 66.6149 38.7123C65.2096 38.7097 63.8304 38.3352 62.6191 37.6273L61.8048 40.6196C60.3274 45.5316 59.2865 47.4305 59.2865 47.4305C58.7131 48.7623 58.0306 50.045 57.2466 51.2659C56.7051 52.063 56.0126 52.8643 55.064 53.1689C54.7341 53.2832 54.3815 53.3175 54.0357 53.2691C53.6613 53.224 53.2999 53.1033 52.9737 52.9143C52.35 52.4479 51.8539 51.8339 51.5299 51.1281C51.1286 50.3446 50.7685 49.5409 50.4512 48.7201C49.7502 47.0257 48.6673 42.8523 48.6673 42.8523L47.5467 38.4828L46.426 34.0799L45.6285 31.1878C43.5299 23.6548 40.6253 19.9489 40.6253 19.9489C38.3424 16.7122 35.1081 14.2572 31.3661 12.9209C27.0261 11.3726 22.4721 12.2448 22.4721 12.2448C15.3367 13.6387 11.5885 18.5049 9.939 20.8461C10.694 21.0422 11.4164 21.3458 12.0838 21.7476C12.9769 22.2791 13.7488 22.9897 14.3503 23.8343C15.4248 25.3534 15.6683 27.2439 15.8823 29.051C16.3326 32.9675 17.1104 36.8399 18.2076 40.6279C20.6253 32.6568 23.5256 28.9425 23.5256 28.9425C23.8497 28.5421 24.2383 28.198 24.6756 27.9242C24.9033 27.7852 25.1579 27.6956 25.4228 27.6613C25.9137 27.6143 26.4061 27.7334 26.8205 27.9993C26.8963 28.049 26.9679 28.1048 27.0345 28.1662C27.4136 28.5005 27.7392 28.8903 27.9999 29.3223C28.6037 30.3954 29.1269 31.5113 29.5655 32.661C30.4721 35.1984 31.2444 38.2992 31.2444 38.2992L33.5529 47.3471C35.2318 53.4986 36.6547 56.4868 36.6547 56.4868C40.1594 64.4662 45.5194 66.7115 45.5194 66.7115C48.1288 68.0992 51.0308 68.8541 53.9895 68.9151C56.8138 68.9914 59.6151 68.3917 62.1574 67.1664C64.9448 65.8034 67.3901 63.8369 69.3138 61.4113C70.6107 59.9173 72.5205 56.2781 72.5205 56.2781C74.6263 52.106 76.2796 47.7229 77.4523 43.2029C78.2015 40.387 78.8025 37.5341 79.2529 34.6558C79.4796 33.2285 79.6936 31.7929 79.8657 30.3531C80.0802 28.9897 80.0374 27.5985 79.7398 26.2507C79.6773 26.0083 79.6004 25.77 79.5089 25.537C78.8344 23.8456 77.5837 22.4438 75.9748 21.5765C74.7824 20.9462 73.451 20.6206 72.1007 20.6291Z" fill="url(#paint25_radial_4497_18469)"/>
<path d="M72.1007 20.6291C71.4338 20.6277 70.7698 20.7104 70.1238 20.8753C71.5962 22.9907 72.8462 25.2506 73.8552 27.6195C74.3135 28.6383 74.5494 29.7421 74.5478 30.8581C74.5457 31.8917 74.3387 32.9148 73.9387 33.8689C73.5387 34.823 72.9541 35.6895 72.2174 36.4188C71.4808 37.1482 70.6069 37.7261 69.6453 38.1196C68.6842 38.5132 67.6546 38.7146 66.6149 38.7123C65.2096 38.7097 63.8304 38.3352 62.6191 37.6273L61.8048 40.6196C60.3274 45.5316 59.2865 47.4305 59.2865 47.4305C58.7131 48.7623 58.0306 50.045 57.2466 51.2659C56.7051 52.063 56.0126 52.8643 55.064 53.1689C54.7341 53.2832 54.3815 53.3175 54.0357 53.2691C53.6613 53.224 53.2999 53.1033 52.9737 52.9143C52.35 52.4479 51.8539 51.8339 51.5299 51.1281C51.1286 50.3446 50.7685 49.5409 50.4512 48.7201C49.7502 47.0257 48.6673 42.8523 48.6673 42.8523L47.5467 38.4828L46.426 34.0799L45.6285 31.1878C43.5299 23.6548 40.6253 19.9489 40.6253 19.9489C38.3424 16.7122 35.1081 14.2572 31.3661 12.9209C27.0261 11.3726 22.4721 12.2448 22.4721 12.2448C15.3367 13.6387 11.5885 18.5049 9.939 20.8461C10.694 21.0422 11.4164 21.3458 12.0838 21.7476C12.9769 22.2791 13.7488 22.9897 14.3503 23.8343C15.4248 25.3534 15.6683 27.2439 15.8823 29.051C16.3326 32.9675 17.1104 36.8399 18.2076 40.6279C20.6253 32.6568 23.5256 28.9425 23.5256 28.9425C23.8497 28.5421 24.2383 28.198 24.6756 27.9242C24.9033 27.7852 25.1579 27.6956 25.4228 27.6613C25.9137 27.6143 26.4061 27.7334 26.8205 27.9993C26.8963 28.049 26.9679 28.1048 27.0345 28.1662C27.4136 28.5005 27.7392 28.8903 27.9999 29.3223C28.6037 30.3954 29.1269 31.5113 29.5655 32.661C30.4721 35.1984 31.2444 38.2992 31.2444 38.2992L33.5529 47.3471C35.2318 53.4986 36.6547 56.4868 36.6547 56.4868C40.1594 64.4662 45.5194 66.7115 45.5194 66.7115C48.1288 68.0992 51.0308 68.8541 53.9895 68.9151C56.8138 68.9914 59.6151 68.3917 62.1574 67.1664C64.9448 65.8034 67.3901 63.8369 69.3138 61.4113C70.6107 59.9173 72.5205 56.2781 72.5205 56.2781C74.6263 52.106 76.2796 47.7229 77.4523 43.2029C78.2015 40.387 78.8025 37.5341 79.2529 34.6558C79.4796 33.2285 79.6936 31.7929 79.8657 30.3531C80.0802 28.9897 80.0374 27.5985 79.7398 26.2507C79.6773 26.0083 79.6004 25.77 79.5089 25.537C78.8344 23.8456 77.5837 22.4438 75.9748 21.5765C74.7824 20.9462 73.451 20.6206 72.1007 20.6291Z" fill="url(#paint26_radial_4497_18469)"/>
<path d="M72.1007 20.6291C71.4338 20.6277 70.7698 20.7104 70.1238 20.8753C71.5962 22.9907 72.8462 25.2506 73.8552 27.6195C74.3135 28.6383 74.5494 29.7421 74.5478 30.8581C74.5457 31.8917 74.3387 32.9148 73.9387 33.8689C73.5387 34.823 72.9541 35.6895 72.2174 36.4188C71.4808 37.1482 70.6069 37.7261 69.6453 38.1196C68.6842 38.5132 67.6546 38.7146 66.6149 38.7123C65.2096 38.7097 63.8304 38.3352 62.6191 37.6273L61.8048 40.6196C60.3274 45.5316 59.2865 47.4305 59.2865 47.4305C58.7131 48.7623 58.0306 50.045 57.2466 51.2659C56.7051 52.063 56.0126 52.8643 55.064 53.1689C54.7341 53.2832 54.3815 53.3175 54.0357 53.2691C53.6613 53.224 53.2999 53.1033 52.9737 52.9143C52.35 52.4479 51.8539 51.8339 51.5299 51.1281C51.1286 50.3446 50.7685 49.5409 50.4512 48.7201C49.7502 47.0257 48.6673 42.8523 48.6673 42.8523L47.5467 38.4828L46.426 34.0799L45.6285 31.1878C43.5299 23.6548 40.6253 19.9489 40.6253 19.9489C38.3424 16.7122 35.1081 14.2572 31.3661 12.9209C27.0261 11.3726 22.4721 12.2448 22.4721 12.2448C15.3367 13.6387 11.5885 18.5049 9.939 20.8461C10.694 21.0422 11.4164 21.3458 12.0838 21.7476C12.9769 22.2791 13.7488 22.9897 14.3503 23.8343C15.4248 25.3534 15.6683 27.2439 15.8823 29.051C16.3326 32.9675 17.1104 36.8399 18.2076 40.6279C20.6253 32.6568 23.5256 28.9425 23.5256 28.9425C23.8497 28.5421 24.2383 28.198 24.6756 27.9242C24.9033 27.7852 25.1579 27.6956 25.4228 27.6613C25.9137 27.6143 26.4061 27.7334 26.8205 27.9993C26.8963 28.049 26.9679 28.1048 27.0345 28.1662C27.4136 28.5005 27.7392 28.8903 27.9999 29.3223C28.6037 30.3954 29.1269 31.5113 29.5655 32.661C30.4721 35.1984 31.2444 38.2992 31.2444 38.2992L33.5529 47.3471C35.2318 53.4986 36.6547 56.4868 36.6547 56.4868C40.1594 64.4662 45.5194 66.7115 45.5194 66.7115C48.1288 68.0992 51.0308 68.8541 53.9895 68.9151C56.8138 68.9914 59.6151 68.3917 62.1574 67.1664C64.9448 65.8034 67.3901 63.8369 69.3138 61.4113C70.6107 59.9173 72.5205 56.2781 72.5205 56.2781C74.6263 52.106 76.2796 47.7229 77.4523 43.2029C78.2015 40.387 78.8025 37.5341 79.2529 34.6558C79.4796 33.2285 79.6936 31.7929 79.8657 30.3531C80.0802 28.9897 80.0374 27.5985 79.7398 26.2507C79.6773 26.0083 79.6004 25.77 79.5089 25.537C78.8344 23.8456 77.5837 22.4438 75.9748 21.5765C74.7824 20.9462 73.451 20.6206 72.1007 20.6291Z" fill="url(#paint27_radial_4497_18469)"/>
<path d="M72.1007 20.6291C71.4338 20.6277 70.7698 20.7104 70.1238 20.8753C71.5962 22.9907 72.8462 25.2506 73.8552 27.6195C74.3135 28.6383 74.5494 29.7421 74.5478 30.8581C74.5457 31.8917 74.3387 32.9148 73.9387 33.8689C73.5387 34.823 72.9541 35.6895 72.2174 36.4188C71.4808 37.1482 70.6069 37.7261 69.6453 38.1196C68.6842 38.5132 67.6546 38.7146 66.6149 38.7123C65.2096 38.7097 63.8304 38.3352 62.6191 37.6273L61.8048 40.6196C60.3274 45.5316 59.2865 47.4305 59.2865 47.4305C58.7131 48.7623 58.0306 50.045 57.2466 51.2659C56.7051 52.063 56.0126 52.8643 55.064 53.1689C54.7341 53.2832 54.3815 53.3175 54.0357 53.2691C53.6613 53.224 53.2999 53.1033 52.9737 52.9143C52.35 52.4479 51.8539 51.8339 51.5299 51.1281C51.1286 50.3446 50.7685 49.5409 50.4512 48.7201C49.7502 47.0257 48.6673 42.8523 48.6673 42.8523L47.5467 38.4828L46.426 34.0799L45.6285 31.1878C43.5299 23.6548 40.6253 19.9489 40.6253 19.9489C38.3424 16.7122 35.1081 14.2572 31.3661 12.9209C27.0261 11.3726 22.4721 12.2448 22.4721 12.2448C15.3367 13.6387 11.5885 18.5049 9.939 20.8461C10.694 21.0422 11.4164 21.3458 12.0838 21.7476C12.9769 22.2791 13.7488 22.9897 14.3503 23.8343C15.4248 25.3534 15.6683 27.2439 15.8823 29.051C16.3326 32.9675 17.1104 36.8399 18.2076 40.6279C20.6253 32.6568 23.5256 28.9425 23.5256 28.9425C23.8497 28.5421 24.2383 28.198 24.6756 27.9242C24.9033 27.7852 25.1579 27.6956 25.4228 27.6613C25.9137 27.6143 26.4061 27.7334 26.8205 27.9993C26.8963 28.049 26.9679 28.1048 27.0345 28.1662C27.4136 28.5005 27.7392 28.8903 27.9999 29.3223C28.6037 30.3954 29.1269 31.5113 29.5655 32.661C30.4721 35.1984 31.2444 38.2992 31.2444 38.2992L33.5529 47.3471C35.2318 53.4986 36.6547 56.4868 36.6547 56.4868C40.1594 64.4662 45.5194 66.7115 45.5194 66.7115C48.1288 68.0992 51.0308 68.8541 53.9895 68.9151C56.8138 68.9914 59.6151 68.3917 62.1574 67.1664C64.9448 65.8034 67.3901 63.8369 69.3138 61.4113C70.6107 59.9173 72.5205 56.2781 72.5205 56.2781C74.6263 52.106 76.2796 47.7229 77.4523 43.2029C78.2015 40.387 78.8025 37.5341 79.2529 34.6558C79.4796 33.2285 79.6936 31.7929 79.8657 30.3531C80.0802 28.9897 80.0374 27.5985 79.7398 26.2507C79.6773 26.0083 79.6004 25.77 79.5089 25.537C78.8344 23.8456 77.5837 22.4438 75.9748 21.5765C74.7824 20.9462 73.451 20.6206 72.1007 20.6291Z" fill="url(#paint28_radial_4497_18469)"/>
<path d="M72.1007 20.6291C71.4338 20.6277 70.7698 20.7104 70.1238 20.8753C71.5962 22.9907 72.8462 25.2506 73.8552 27.6195C74.3135 28.6383 74.5494 29.7421 74.5478 30.8581C74.5457 31.8917 74.3387 32.9148 73.9387 33.8689C73.5387 34.823 72.9541 35.6895 72.2174 36.4188C71.4808 37.1482 70.6069 37.7261 69.6453 38.1196C68.6842 38.5132 67.6546 38.7146 66.6149 38.7123C65.2096 38.7097 63.8304 38.3352 62.6191 37.6273L61.8048 40.6196C60.3274 45.5316 59.2865 47.4305 59.2865 47.4305C58.7131 48.7623 58.0306 50.045 57.2466 51.2659C56.7051 52.063 56.0126 52.8643 55.064 53.1689C54.7341 53.2832 54.3815 53.3175 54.0357 53.2691C53.6613 53.224 53.2999 53.1033 52.9737 52.9143C52.35 52.4479 51.8539 51.8339 51.5299 51.1281C51.1286 50.3446 50.7685 49.5409 50.4512 48.7201C49.7502 47.0257 48.6673 42.8523 48.6673 42.8523L47.5467 38.4828L46.426 34.0799L45.6285 31.1878C43.5299 23.6548 40.6253 19.9489 40.6253 19.9489C38.3424 16.7122 35.1081 14.2572 31.3661 12.9209C27.0261 11.3726 22.4721 12.2448 22.4721 12.2448C15.3367 13.6387 11.5885 18.5049 9.939 20.8461C10.694 21.0422 11.4164 21.3458 12.0838 21.7476C12.9769 22.2791 13.7488 22.9897 14.3503 23.8343C15.4248 25.3534 15.6683 27.2439 15.8823 29.051C16.3326 32.9675 17.1104 36.8399 18.2076 40.6279C20.6253 32.6568 23.5256 28.9425 23.5256 28.9425C23.8497 28.5421 24.2383 28.198 24.6756 27.9242C24.9033 27.7852 25.1579 27.6956 25.4228 27.6613C25.9137 27.6143 26.4061 27.7334 26.8205 27.9993C26.8963 28.049 26.9679 28.1048 27.0345 28.1662C27.4136 28.5005 27.7392 28.8903 27.9999 29.3223C28.6037 30.3954 29.1269 31.5113 29.5655 32.661C30.4721 35.1984 31.2444 38.2992 31.2444 38.2992L33.5529 47.3471C35.2318 53.4986 36.6547 56.4868 36.6547 56.4868C40.1594 64.4662 45.5194 66.7115 45.5194 66.7115C48.1288 68.0992 51.0308 68.8541 53.9895 68.9151C56.8138 68.9914 59.6151 68.3917 62.1574 67.1664C64.9448 65.8034 67.3901 63.8369 69.3138 61.4113C70.6107 59.9173 72.5205 56.2781 72.5205 56.2781C74.6263 52.106 76.2796 47.7229 77.4523 43.2029C78.2015 40.387 78.8025 37.5341 79.2529 34.6558C79.4796 33.2285 79.6936 31.7929 79.8657 30.3531C80.0802 28.9897 80.0374 27.5985 79.7398 26.2507C79.6773 26.0083 79.6004 25.77 79.5089 25.537C78.8344 23.8456 77.5837 22.4438 75.9748 21.5765C74.7824 20.9462 73.451 20.6206 72.1007 20.6291Z" fill="url(#paint29_radial_4497_18469)"/>
<path d="M72.1007 20.6291C71.4338 20.6277 70.7698 20.7104 70.1238 20.8753C71.5962 22.9907 72.8462 25.2506 73.8552 27.6195C74.3135 28.6383 74.5494 29.7421 74.5478 30.8581C74.5457 31.8917 74.3387 32.9148 73.9387 33.8689C73.5387 34.823 72.9541 35.6895 72.2174 36.4188C71.4808 37.1482 70.6069 37.7261 69.6453 38.1196C68.6842 38.5132 67.6546 38.7146 66.6149 38.7123C65.2096 38.7097 63.8304 38.3352 62.6191 37.6273L61.8048 40.6196C60.3274 45.5316 59.2865 47.4305 59.2865 47.4305C58.7131 48.7623 58.0306 50.045 57.2466 51.2659C56.7051 52.063 56.0126 52.8643 55.064 53.1689C54.7341 53.2832 54.3815 53.3175 54.0357 53.2691C53.6613 53.224 53.2999 53.1033 52.9737 52.9143C52.35 52.4479 51.8539 51.8339 51.5299 51.1281C51.1286 50.3446 50.7685 49.5409 50.4512 48.7201C49.7502 47.0257 48.6673 42.8523 48.6673 42.8523L47.5467 38.4828L46.426 34.0799L45.6285 31.1878C43.5299 23.6548 40.6253 19.9489 40.6253 19.9489C38.3424 16.7122 35.1081 14.2572 31.3661 12.9209C27.0261 11.3726 22.4721 12.2448 22.4721 12.2448C15.3367 13.6387 11.5885 18.5049 9.939 20.8461C10.694 21.0422 11.4164 21.3458 12.0838 21.7476C12.9769 22.2791 13.7488 22.9897 14.3503 23.8343C15.4248 25.3534 15.6683 27.2439 15.8823 29.051C16.3326 32.9675 17.1104 36.8399 18.2076 40.6279C20.6253 32.6568 23.5256 28.9425 23.5256 28.9425C23.8497 28.5421 24.2383 28.198 24.6756 27.9242C24.9033 27.7852 25.1579 27.6956 25.4228 27.6613C25.9137 27.6143 26.4061 27.7334 26.8205 27.9993C26.8963 28.049 26.9679 28.1048 27.0345 28.1662C27.4136 28.5005 27.7392 28.8903 27.9999 29.3223C28.6037 30.3954 29.1269 31.5113 29.5655 32.661C30.4721 35.1984 31.2444 38.2992 31.2444 38.2992L33.5529 47.3471C35.2318 53.4986 36.6547 56.4868 36.6547 56.4868C40.1594 64.4662 45.5194 66.7115 45.5194 66.7115C48.1288 68.0992 51.0308 68.8541 53.9895 68.9151C56.8138 68.9914 59.6151 68.3917 62.1574 67.1664C64.9448 65.8034 67.3901 63.8369 69.3138 61.4113C70.6107 59.9173 72.5205 56.2781 72.5205 56.2781C74.6263 52.106 76.2796 47.7229 77.4523 43.2029C78.2015 40.387 78.8025 37.5341 79.2529 34.6558C79.4796 33.2285 79.6936 31.7929 79.8657 30.3531C80.0802 28.9897 80.0374 27.5985 79.7398 26.2507C79.6773 26.0083 79.6004 25.77 79.5089 25.537C78.8344 23.8456 77.5837 22.4438 75.9748 21.5765C74.7824 20.9462 73.451 20.6206 72.1007 20.6291Z" fill="url(#paint30_radial_4497_18469)"/>
<path d="M72.1007 20.6291C71.4338 20.6277 70.7698 20.7104 70.1238 20.8753C71.5962 22.9907 72.8462 25.2506 73.8552 27.6195C74.3135 28.6383 74.5494 29.7421 74.5478 30.8581C74.5457 31.8917 74.3387 32.9148 73.9387 33.8689C73.5387 34.823 72.9541 35.6895 72.2174 36.4188C71.4808 37.1482 70.6069 37.7261 69.6453 38.1196C68.6842 38.5132 67.6546 38.7146 66.6149 38.7123C65.2096 38.7097 63.8304 38.3352 62.6191 37.6273L61.8048 40.6196C60.3274 45.5316 59.2865 47.4305 59.2865 47.4305C58.7131 48.7623 58.0306 50.045 57.2466 51.2659C56.7051 52.063 56.0126 52.8643 55.064 53.1689C54.7341 53.2832 54.3815 53.3175 54.0357 53.2691C53.6613 53.224 53.2999 53.1033 52.9737 52.9143C52.35 52.4479 51.8539 51.8339 51.5299 51.1281C51.1286 50.3446 50.7685 49.5409 50.4512 48.7201C49.7502 47.0257 48.6673 42.8523 48.6673 42.8523L47.5467 38.4828L46.426 34.0799L45.6285 31.1878C43.5299 23.6548 40.6253 19.9489 40.6253 19.9489C38.3424 16.7122 35.1081 14.2572 31.3661 12.9209C27.0261 11.3726 22.4721 12.2448 22.4721 12.2448C15.3367 13.6387 11.5885 18.5049 9.939 20.8461C10.694 21.0422 11.4164 21.3458 12.0838 21.7476C12.9769 22.2791 13.7488 22.9897 14.3503 23.8343C15.4248 25.3534 15.6683 27.2439 15.8823 29.051C16.3326 32.9675 17.1104 36.8399 18.2076 40.6279C20.6253 32.6568 23.5256 28.9425 23.5256 28.9425C23.8497 28.5421 24.2383 28.198 24.6756 27.9242C24.9033 27.7852 25.1579 27.6956 25.4228 27.6613C25.9137 27.6143 26.4061 27.7334 26.8205 27.9993C26.8963 28.049 26.9679 28.1048 27.0345 28.1662C27.4136 28.5005 27.7392 28.8903 27.9999 29.3223C28.6037 30.3954 29.1269 31.5113 29.5655 32.661C30.4721 35.1984 31.2444 38.2992 31.2444 38.2992L33.5529 47.3471C35.2318 53.4986 36.6547 56.4868 36.6547 56.4868C40.1594 64.4662 45.5194 66.7115 45.5194 66.7115C48.1288 68.0992 51.0308 68.8541 53.9895 68.9151C56.8138 68.9914 59.6151 68.3917 62.1574 67.1664C64.9448 65.8034 67.3901 63.8369 69.3138 61.4113C70.6107 59.9173 72.5205 56.2781 72.5205 56.2781C74.6263 52.106 76.2796 47.7229 77.4523 43.2029C78.2015 40.387 78.8025 37.5341 79.2529 34.6558C79.4796 33.2285 79.6936 31.7929 79.8657 30.3531C80.0802 28.9897 80.0374 27.5985 79.7398 26.2507C79.6773 26.0083 79.6004 25.77 79.5089 25.537C78.8344 23.8456 77.5837 22.4438 75.9748 21.5765C74.7824 20.9462 73.451 20.6206 72.1007 20.6291Z" fill="url(#paint31_radial_4497_18469)"/>
<path d="M72.1007 20.6291C71.4338 20.6277 70.7698 20.7104 70.1238 20.8753C71.5962 22.9907 72.8462 25.2506 73.8552 27.6195C74.3135 28.6383 74.5494 29.7421 74.5478 30.8581C74.5457 31.8917 74.3387 32.9148 73.9387 33.8689C73.5387 34.823 72.9541 35.6895 72.2174 36.4188C71.4808 37.1482 70.6069 37.7261 69.6453 38.1196C68.6842 38.5132 67.6546 38.7146 66.6149 38.7123C65.2096 38.7097 63.8304 38.3352 62.6191 37.6273L61.8048 40.6196C60.3274 45.5316 59.2865 47.4305 59.2865 47.4305C58.7131 48.7623 58.0306 50.045 57.2466 51.2659C56.7051 52.063 56.0126 52.8643 55.064 53.1689C54.7341 53.2832 54.3815 53.3175 54.0357 53.2691C53.6613 53.224 53.2999 53.1033 52.9737 52.9143C52.35 52.4479 51.8539 51.8339 51.5299 51.1281C51.1286 50.3446 50.7685 49.5409 50.4512 48.7201C49.7502 47.0257 48.6673 42.8523 48.6673 42.8523L47.5467 38.4828L46.426 34.0799L45.6285 31.1878C43.5299 23.6548 40.6253 19.9489 40.6253 19.9489C38.3424 16.7122 35.1081 14.2572 31.3661 12.9209C27.0261 11.3726 22.4721 12.2448 22.4721 12.2448C15.3367 13.6387 11.5885 18.5049 9.939 20.8461C10.694 21.0422 11.4164 21.3458 12.0838 21.7476C12.9769 22.2791 13.7488 22.9897 14.3503 23.8343C15.4248 25.3534 15.6683 27.2439 15.8823 29.051C16.3326 32.9675 17.1104 36.8399 18.2076 40.6279C20.6253 32.6568 23.5256 28.9425 23.5256 28.9425C23.8497 28.5421 24.2383 28.198 24.6756 27.9242C24.9033 27.7852 25.1579 27.6956 25.4228 27.6613C25.9137 27.6143 26.4061 27.7334 26.8205 27.9993C26.8963 28.049 26.9679 28.1048 27.0345 28.1662C27.4136 28.5005 27.7392 28.8903 27.9999 29.3223C28.6037 30.3954 29.1269 31.5113 29.5655 32.661C30.4721 35.1984 31.2444 38.2992 31.2444 38.2992L33.5529 47.3471C35.2318 53.4986 36.6547 56.4868 36.6547 56.4868C40.1594 64.4662 45.5194 66.7115 45.5194 66.7115C48.1288 68.0992 51.0308 68.8541 53.9895 68.9151C56.8138 68.9914 59.6151 68.3917 62.1574 67.1664C64.9448 65.8034 67.3901 63.8369 69.3138 61.4113C70.6107 59.9173 72.5205 56.2781 72.5205 56.2781C74.6263 52.106 76.2796 47.7229 77.4523 43.2029C78.2015 40.387 78.8025 37.5341 79.2529 34.6558C79.4796 33.2285 79.6936 31.7929 79.8657 30.3531C80.0802 28.9897 80.0374 27.5985 79.7398 26.2507C79.6773 26.0083 79.6004 25.77 79.5089 25.537C78.8344 23.8456 77.5837 22.4438 75.9748 21.5765C74.7824 20.9462 73.451 20.6206 72.1007 20.6291Z" fill="url(#paint32_radial_4497_18469)"/>
<path d="M72.1007 20.6291C71.4338 20.6277 70.7698 20.7104 70.1238 20.8753C71.5962 22.9907 72.8462 25.2506 73.8552 27.6195C74.3135 28.6383 74.5494 29.7421 74.5478 30.8581C74.5457 31.8917 74.3387 32.9148 73.9387 33.8689C73.5387 34.823 72.9541 35.6895 72.2174 36.4188C71.4808 37.1482 70.6069 37.7261 69.6453 38.1196C68.6842 38.5132 67.6546 38.7146 66.6149 38.7123C65.2096 38.7097 63.8304 38.3352 62.6191 37.6273L61.8048 40.6196C60.3274 45.5316 59.2865 47.4305 59.2865 47.4305C58.7131 48.7623 58.0306 50.045 57.2466 51.2659C56.7051 52.063 56.0126 52.8643 55.064 53.1689C54.7341 53.2832 54.3815 53.3175 54.0357 53.2691C53.6613 53.224 53.2999 53.1033 52.9737 52.9143C52.35 52.4479 51.8539 51.8339 51.5299 51.1281C51.1286 50.3446 50.7685 49.5409 50.4512 48.7201C49.7502 47.0257 48.6673 42.8523 48.6673 42.8523L47.5467 38.4828L46.426 34.0799L45.6285 31.1878C43.5299 23.6548 40.6253 19.9489 40.6253 19.9489C38.3424 16.7122 35.1081 14.2572 31.3661 12.9209C27.0261 11.3726 22.4721 12.2448 22.4721 12.2448C15.3367 13.6387 11.5885 18.5049 9.939 20.8461C10.694 21.0422 11.4164 21.3458 12.0838 21.7476C12.9769 22.2791 13.7488 22.9897 14.3503 23.8343C15.4248 25.3534 15.6683 27.2439 15.8823 29.051C16.3326 32.9675 17.1104 36.8399 18.2076 40.6279C20.6253 32.6568 23.5256 28.9425 23.5256 28.9425C23.8497 28.5421 24.2383 28.198 24.6756 27.9242C24.9033 27.7852 25.1579 27.6956 25.4228 27.6613C25.9137 27.6143 26.4061 27.7334 26.8205 27.9993C26.8963 28.049 26.9679 28.1048 27.0345 28.1662C27.4136 28.5005 27.7392 28.8903 27.9999 29.3223C28.6037 30.3954 29.1269 31.5113 29.5655 32.661C30.4721 35.1984 31.2444 38.2992 31.2444 38.2992L33.5529 47.3471C35.2318 53.4986 36.6547 56.4868 36.6547 56.4868C40.1594 64.4662 45.5194 66.7115 45.5194 66.7115C48.1288 68.0992 51.0308 68.8541 53.9895 68.9151C56.8138 68.9914 59.6151 68.3917 62.1574 67.1664C64.9448 65.8034 67.3901 63.8369 69.3138 61.4113C70.6107 59.9173 72.5205 56.2781 72.5205 56.2781C74.6263 52.106 76.2796 47.7229 77.4523 43.2029C78.2015 40.387 78.8025 37.5341 79.2529 34.6558C79.4796 33.2285 79.6936 31.7929 79.8657 30.3531C80.0802 28.9897 80.0374 27.5985 79.7398 26.2507C79.6773 26.0083 79.6004 25.77 79.5089 25.537C78.8344 23.8456 77.5837 22.4438 75.9748 21.5765C74.7824 20.9462 73.451 20.6206 72.1007 20.6291Z" fill="url(#paint33_radial_4497_18469)"/>
<path d="M72.1007 20.6291C71.4338 20.6277 70.7698 20.7104 70.1238 20.8753C71.5962 22.9907 72.8462 25.2506 73.8552 27.6195C74.3135 28.6383 74.5494 29.7421 74.5478 30.8581C74.5457 31.8917 74.3387 32.9148 73.9387 33.8689C73.5387 34.823 72.9541 35.6895 72.2174 36.4188C71.4808 37.1482 70.6069 37.7261 69.6453 38.1196C68.6842 38.5132 67.6546 38.7146 66.6149 38.7123C65.2096 38.7097 63.8304 38.3352 62.6191 37.6273L61.8048 40.6196C60.3274 45.5316 59.2865 47.4305 59.2865 47.4305C58.7131 48.7623 58.0306 50.045 57.2466 51.2659C56.7051 52.063 56.0126 52.8643 55.064 53.1689C54.7341 53.2832 54.3815 53.3175 54.0357 53.2691C53.6613 53.224 53.2999 53.1033 52.9737 52.9143C52.35 52.4479 51.8539 51.8339 51.5299 51.1281C51.1286 50.3446 50.7685 49.5409 50.4512 48.7201C49.7502 47.0257 48.6673 42.8523 48.6673 42.8523L47.5467 38.4828L46.426 34.0799L45.6285 31.1878C43.5299 23.6548 40.6253 19.9489 40.6253 19.9489C38.3424 16.7122 35.1081 14.2572 31.3661 12.9209C27.0261 11.3726 22.4721 12.2448 22.4721 12.2448C15.3367 13.6387 11.5885 18.5049 9.939 20.8461C10.694 21.0422 11.4164 21.3458 12.0838 21.7476C12.9769 22.2791 13.7488 22.9897 14.3503 23.8343C15.4248 25.3534 15.6683 27.2439 15.8823 29.051C16.3326 32.9675 17.1104 36.8399 18.2076 40.6279C20.6253 32.6568 23.5256 28.9425 23.5256 28.9425C23.8497 28.5421 24.2383 28.198 24.6756 27.9242C24.9033 27.7852 25.1579 27.6956 25.4228 27.6613C25.9137 27.6143 26.4061 27.7334 26.8205 27.9993C26.8963 28.049 26.9679 28.1048 27.0345 28.1662C27.4136 28.5005 27.7392 28.8903 27.9999 29.3223C28.6037 30.3954 29.1269 31.5113 29.5655 32.661C30.4721 35.1984 31.2444 38.2992 31.2444 38.2992L33.5529 47.3471C35.2318 53.4986 36.6547 56.4868 36.6547 56.4868C40.1594 64.4662 45.5194 66.7115 45.5194 66.7115C48.1288 68.0992 51.0308 68.8541 53.9895 68.9151C56.8138 68.9914 59.6151 68.3917 62.1574 67.1664C64.9448 65.8034 67.3901 63.8369 69.3138 61.4113C70.6107 59.9173 72.5205 56.2781 72.5205 56.2781C74.6263 52.106 76.2796 47.7229 77.4523 43.2029C78.2015 40.387 78.8025 37.5341 79.2529 34.6558C79.4796 33.2285 79.6936 31.7929 79.8657 30.3531C80.0802 28.9897 80.0374 27.5985 79.7398 26.2507C79.6773 26.0083 79.6004 25.77 79.5089 25.537C78.8344 23.8456 77.5837 22.4438 75.9748 21.5765C74.7824 20.9462 73.451 20.6206 72.1007 20.6291Z" fill="url(#paint34_linear_4497_18469)"/>
<defs>
<linearGradient id="paint0_linear_4497_18469" x1="3.58448" y1="50.4477" x2="65.7046" y2="25.1943" gradientUnits="userSpaceOnUse">
<stop offset="0.13" stop-color="#1CBBF3"/>
<stop offset="0.34" stop-color="#1F99A5"/>
<stop offset="0.45" stop-color="#209CA6"/>
<stop offset="0.51" stop-color="#24A4AA"/>
<stop offset="0.57" stop-color="#2BB3B0"/>
<stop offset="0.6" stop-color="#30BDB4"/>
<stop offset="0.79" stop-color="#38BA90"/>
<stop offset="1" stop-color="#60F05A"/>
</linearGradient>
<radialGradient id="paint1_radial_4497_18469" cx="0" cy="0" r="1" gradientUnits="userSpaceOnUse" gradientTransform="translate(45.004 35.758) rotate(74.2346) scale(29.5808 22.5912)">
<stop stop-color="#227B60"/>
<stop offset="0.14" stop-color="#227B60" stop-opacity="0.81"/>
<stop offset="0.58" stop-color="#227B60" stop-opacity="0.23"/>
<stop offset="0.78" stop-color="#227B60" stop-opacity="0"/>
</radialGradient>
<radialGradient id="paint2_radial_4497_18469" cx="0" cy="0" r="1" gradientUnits="userSpaceOnUse" gradientTransform="translate(49.3171 33.7033) rotate(91.1524) scale(19.9945 15.2807)">
<stop stop-color="#227B60"/>
<stop offset="0.25" stop-color="#227B60" stop-opacity="0.7"/>
<stop offset="0.71" stop-color="#227B60" stop-opacity="0.2"/>
<stop offset="0.92" stop-color="#227B60" stop-opacity="0"/>
</radialGradient>
<radialGradient id="paint3_radial_4497_18469" cx="0" cy="0" r="1" gradientUnits="userSpaceOnUse" gradientTransform="translate(48.5414 34.4368) rotate(88.592) scale(18.6384 13.3089)">
<stop stop-color="#227B60"/>
<stop offset="0.07" stop-color="#227B60" stop-opacity="0.9"/>
<stop offset="0.34" stop-color="#227B60" stop-opacity="0.51"/>
<stop offset="0.59" stop-color="#227B60" stop-opacity="0.23"/>
<stop offset="0.79" stop-color="#227B60" stop-opacity="0.06"/>
<stop offset="0.92" stop-color="#227B60" stop-opacity="0"/>
</radialGradient>
<radialGradient id="paint4_radial_4497_18469" cx="0" cy="0" r="1" gradientUnits="userSpaceOnUse" gradientTransform="translate(48.8588 33.5872) rotate(88.592) scale(15.0492 10.7461)">
<stop stop-color="#227B60"/>
<stop offset="0.36" stop-color="#227B60" stop-opacity="0.63"/>
<stop offset="0.92" stop-color="#227B60" stop-opacity="0"/>
</radialGradient>
<radialGradient id="paint5_radial_4497_18469" cx="0" cy="0" r="1" gradientUnits="userSpaceOnUse" gradientTransform="translate(49.519 34.4332) rotate(88.592) scale(12.0027 7.72565)">
<stop stop-color="#20735A"/>
<stop offset="0.15" stop-color="#20745A" stop-opacity="0.93"/>
<stop offset="0.38" stop-color="#21755C" stop-opacity="0.74"/>
<stop offset="0.67" stop-color="#21785D" stop-opacity="0.43"/>
<stop offset="1" stop-color="#227B60" stop-opacity="0"/>
</radialGradient>
<radialGradient id="paint6_radial_4497_18469" cx="0" cy="0" r="1" gradientUnits="userSpaceOnUse" gradientTransform="translate(51.1362 36.3477) rotate(23.6794) scale(19.407 14.4992)">
<stop stop-color="#227A61"/>
<stop offset="0.36" stop-color="#227A61" stop-opacity="0.56"/>
<stop offset="0.72" stop-color="#227A61" stop-opacity="0.16"/>
<stop offset="0.9" stop-color="#227A61" stop-opacity="0"/>
</radialGradient>
<radialGradient id="paint7_radial_4497_18469" cx="0" cy="0" r="1" gradientUnits="userSpaceOnUse" gradientTransform="translate(45.9878 6.16949) rotate(35.1183) scale(25.8564 23.5966)">
<stop stop-color="#3CD9C3"/>
<stop offset="0.07" stop-color="#3BD7C1" stop-opacity="0.9"/>
<stop offset="0.41" stop-color="#38CEB9" stop-opacity="0.42"/>
<stop offset="0.65" stop-color="#36C8B4" stop-opacity="0.12"/>
<stop offset="0.76" stop-color="#35C6B2" stop-opacity="0"/>
</radialGradient>
<radialGradient id="paint8_radial_4497_18469" cx="0" cy="0" r="1" gradientUnits="userSpaceOnUse" gradientTransform="translate(22502.3 -11683.4) rotate(35.1183) scale(4592.38 3217.42)">
<stop stop-color="#3CD9C3"/>
<stop offset="0.07" stop-color="#3BD7C1" stop-opacity="0.9"/>
<stop offset="0.41" stop-color="#38CEB9" stop-opacity="0.42"/>
<stop offset="0.65" stop-color="#36C8B4" stop-opacity="0.12"/>
<stop offset="0.76" stop-color="#35C6B2" stop-opacity="0"/>
</radialGradient>
<radialGradient id="paint9_radial_4497_18469" cx="0" cy="0" r="1" gradientUnits="userSpaceOnUse" gradientTransform="translate(56.306 40.7941) rotate(101.033) scale(22.7223 28.2276)">
<stop stop-color="#237F66" stop-opacity="0.8"/>
<stop offset="0.06" stop-color="#2C8C70" stop-opacity="0.65"/>
<stop offset="0.21" stop-color="#3DA785" stop-opacity="0.37"/>
<stop offset="0.35" stop-color="#4ABA93" stop-opacity="0.17"/>
<stop offset="0.47" stop-color="#51C59C" stop-opacity="0.04"/>
<stop offset="0.56" stop-color="#54C99F" stop-opacity="0"/>
</radialGradient>
<radialGradient id="paint10_radial_4497_18469" cx="0" cy="0" r="1" gradientUnits="userSpaceOnUse" gradientTransform="translate(42.1549 42.4105) rotate(-50.6596) scale(29.7532 32.17)">
<stop stop-color="#167C8A"/>
<stop offset="0.04" stop-color="#167C8A" stop-opacity="0.93"/>
<stop offset="0.33" stop-color="#177F8D" stop-opacity="0.43"/>
<stop offset="0.54" stop-color="#17818F" stop-opacity="0.12"/>
<stop offset="0.65" stop-color="#178290" stop-opacity="0"/>
</radialGradient>
<radialGradient id="paint11_radial_4497_18469" cx="0" cy="0" r="1" gradientUnits="userSpaceOnUse" gradientTransform="translate(40.3637 45.4093) rotate(-31.514) scale(29.0793 22.9135)">
<stop offset="0.05" stop-color="#177D87"/>
<stop offset="0.11" stop-color="#177E89" stop-opacity="0.8"/>
<stop offset="0.21" stop-color="#177F8B" stop-opacity="0.52"/>
<stop offset="0.32" stop-color="#17818D" stop-opacity="0.29"/>
<stop offset="0.42" stop-color="#17818F" stop-opacity="0.13"/>
<stop offset="0.51" stop-color="#178290" stop-opacity="0.03"/>
<stop offset="0.6" stop-color="#178290" stop-opacity="0"/>
</radialGradient>
<radialGradient id="paint12_radial_4497_18469" cx="0" cy="0" r="1" gradientUnits="userSpaceOnUse" gradientTransform="translate(33.1818 45.9086) rotate(-130.701) scale(17.2954 13.6306)">
<stop offset="0.26" stop-color="#177F8A"/>
<stop offset="0.27" stop-color="#177F8A" stop-opacity="0.98"/>
<stop offset="0.38" stop-color="#17808C" stop-opacity="0.68"/>
<stop offset="0.5" stop-color="#17818D" stop-opacity="0.43"/>
<stop offset="0.62" stop-color="#17818F" stop-opacity="0.24"/>
<stop offset="0.74" stop-color="#17828F" stop-opacity="0.11"/>
<stop offset="0.86" stop-color="#178290" stop-opacity="0.03"/>
<stop offset="1" stop-color="#178290" stop-opacity="0"/>
</radialGradient>
<radialGradient id="paint13_radial_4497_18469" cx="0" cy="0" r="1" gradientUnits="userSpaceOnUse" gradientTransform="translate(30.0362 50.1498) rotate(-173.149) scale(16.2757 16.1857)">
<stop stop-color="#13656E"/>
<stop offset="0.11" stop-color="#13646E" stop-opacity="0.73"/>
<stop offset="0.27" stop-color="#12646E" stop-opacity="0.41"/>
<stop offset="0.42" stop-color="#12636E" stop-opacity="0.18"/>
<stop offset="0.55" stop-color="#12636E" stop-opacity="0.05"/>
<stop offset="0.66" stop-color="#12636E" stop-opacity="0"/>
</radialGradient>
<radialGradient id="paint14_radial_4497_18469" cx="0" cy="0" r="1" gradientUnits="userSpaceOnUse" gradientTransform="translate(29.609 52.56) rotate(-119.46) scale(11.3338 9.54859)">
<stop offset="0.13" stop-color="#146A73"/>
<stop offset="0.24" stop-color="#156F79" stop-opacity="0.79"/>
<stop offset="0.45" stop-color="#167783" stop-opacity="0.45"/>
<stop offset="0.65" stop-color="#167D8A" stop-opacity="0.2"/>
<stop offset="0.82" stop-color="#17818E" stop-opacity="0.05"/>
<stop offset="0.95" stop-color="#178290" stop-opacity="0"/>
</radialGradient>
<radialGradient id="paint15_radial_4497_18469" cx="0" cy="0" r="1" gradientUnits="userSpaceOnUse" gradientTransform="translate(28.7221 47.8427) rotate(-55.8406) scale(10.6661 8.46792)">
<stop stop-color="#198E9C"/>
<stop offset="0.1" stop-color="#198E9C" stop-opacity="0.87"/>
<stop offset="0.41" stop-color="#198E9C" stop-opacity="0.5"/>
<stop offset="0.67" stop-color="#198E9C" stop-opacity="0.23"/>
<stop offset="0.88" stop-color="#198E9C" stop-opacity="0.06"/>
<stop offset="1" stop-color="#198E9C" stop-opacity="0"/>
</radialGradient>
<linearGradient id="paint16_linear_4497_18469" x1="7.5929" y1="10.7047" x2="34.8984" y2="36.1216" gradientUnits="userSpaceOnUse">
<stop offset="0.13" stop-color="#2BF9FF"/>
<stop offset="0.27" stop-color="#29F9FF" stop-opacity="0.64"/>
<stop offset="0.4" stop-color="#27FAFF" stop-opacity="0.3"/>
<stop offset="0.49" stop-color="#26FAFF" stop-opacity="0.08"/>
<stop offset="0.54" stop-color="#26FAFF" stop-opacity="0"/>
</linearGradient>
<linearGradient id="paint17_linear_4497_18469" x1="-7.95382" y1="51.9293" x2="24.086" y2="42.7937" gradientUnits="userSpaceOnUse">
<stop stop-color="#26FAFF"/>
<stop offset="0.06" stop-color="#26FAFF" stop-opacity="0.88"/>
<stop offset="0.24" stop-color="#26FAFF" stop-opacity="0.51"/>
<stop offset="0.39" stop-color="#26FAFF" stop-opacity="0.23"/>
<stop offset="0.5" stop-color="#26FAFF" stop-opacity="0.06"/>
<stop offset="0.55" stop-color="#26FAFF" stop-opacity="0"/>
</linearGradient>
<linearGradient id="paint18_linear_4497_18469" x1="0.541449" y1="50.8192" x2="36.6375" y2="37.8807" gradientUnits="userSpaceOnUse">
<stop stop-color="#21DEFF"/>
<stop offset="0.04" stop-color="#21DEFF" stop-opacity="0.88"/>
<stop offset="0.17" stop-color="#21DEFF" stop-opacity="0.51"/>
<stop offset="0.27" stop-color="#21DEFF" stop-opacity="0.23"/>
<stop offset="0.34" stop-color="#21DEFF" stop-opacity="0.06"/>
<stop offset="0.38" stop-color="#21DEFF" stop-opacity="0"/>
</linearGradient>
<linearGradient id="paint19_linear_4497_18469" x1="34.8836" y1="32.281" x2="54.9302" y2="65.1649" gradientUnits="userSpaceOnUse">
<stop offset="0.62" stop-color="#21DEFF" stop-opacity="0"/>
<stop offset="0.66" stop-color="#21DEFF" stop-opacity="0.06"/>
<stop offset="0.73" stop-color="#21DEFF" stop-opacity="0.23"/>
<stop offset="0.83" stop-color="#21DEFF" stop-opacity="0.51"/>
<stop offset="0.96" stop-color="#21DEFF" stop-opacity="0.88"/>
<stop offset="1" stop-color="#21DEFF"/>
</linearGradient>
<linearGradient id="paint20_linear_4497_18469" x1="57.3811" y1="44.53" x2="54.2342" y2="29.1023" gradientUnits="userSpaceOnUse">
<stop stop-color="#44B044"/>
<stop offset="0.11" stop-color="#44B044" stop-opacity="0.8"/>
<stop offset="0.27" stop-color="#44B044" stop-opacity="0.52"/>
<stop offset="0.43" stop-color="#44B044" stop-opacity="0.29"/>
<stop offset="0.58" stop-color="#44B044" stop-opacity="0.13"/>
<stop offset="0.7" stop-color="#44B044" stop-opacity="0.03"/>
<stop offset="0.8" stop-color="#44B044" stop-opacity="0"/>
</linearGradient>
<linearGradient id="paint21_linear_4497_18469" x1="13.0198" y1="28.546" x2="79.8612" y2="50.8009" gradientUnits="userSpaceOnUse">
<stop stop-color="#3066FB"/>
<stop offset="0.38" stop-color="#2F64F7"/>
<stop offset="0.74" stop-color="#2857D9"/>
<stop offset="1" stop-color="#3C7EFF"/>
</linearGradient>
<radialGradient id="paint22_radial_4497_18469" cx="0" cy="0" r="1" gradientUnits="userSpaceOnUse" gradientTransform="translate(60.2573 38.5993) rotate(98.739) scale(35.5869 23.6157)">
<stop stop-color="#1A3D9C"/>
<stop offset="0.4" stop-color="#1A3D9C" stop-opacity="0.42"/>
<stop offset="0.7" stop-color="#1A3D9C" stop-opacity="0"/>
</radialGradient>
<radialGradient id="paint23_radial_4497_18469" cx="0" cy="0" r="1" gradientUnits="userSpaceOnUse" gradientTransform="translate(10528 17326.5) rotate(98.739) scale(4377.44 2373.62)">
<stop stop-color="#1A3D9C"/>
<stop offset="0.4" stop-color="#1A3D9C" stop-opacity="0.42"/>
<stop offset="0.7" stop-color="#1A3D9C" stop-opacity="0"/>
</radialGradient>
<radialGradient id="paint24_radial_4497_18469" cx="0" cy="0" r="1" gradientUnits="userSpaceOnUse" gradientTransform="translate(7953.24 16570.2) rotate(98.6642) scale(5213.26 2165.91)">
<stop stop-color="#1A3D9C"/>
<stop offset="0.4" stop-color="#1A3D9C" stop-opacity="0.42"/>
<stop offset="0.7" stop-color="#1A3D9C" stop-opacity="0"/>
</radialGradient>
<radialGradient id="paint25_radial_4497_18469" cx="0" cy="0" r="1" gradientUnits="userSpaceOnUse" gradientTransform="translate(54.5633 36.2028) rotate(83.0496) scale(31.1043 21.8233)">
<stop stop-color="#1A3D9C"/>
<stop offset="0.16" stop-color="#1A3D9C" stop-opacity="0.69"/>
<stop offset="0.33" stop-color="#1A3D9C" stop-opacity="0.4"/>
<stop offset="0.49" stop-color="#1A3D9C" stop-opacity="0.18"/>
<stop offset="0.61" stop-color="#1A3D9C" stop-opacity="0.05"/>
<stop offset="0.7" stop-color="#1A3D9C" stop-opacity="0"/>
</radialGradient>
<radialGradient id="paint26_radial_4497_18469" cx="0" cy="0" r="1" gradientUnits="userSpaceOnUse" gradientTransform="translate(61.4552 42.027) rotate(74.5562) scale(29.9018 20.4332)">
<stop stop-color="#18388F"/>
<stop offset="0.37" stop-color="#193B96" stop-opacity="0.45"/>
<stop offset="0.7" stop-color="#1A3D9C" stop-opacity="0"/>
</radialGradient>
<radialGradient id="paint27_radial_4497_18469" cx="0" cy="0" r="1" gradientUnits="userSpaceOnUse" gradientTransform="translate(58.4608 49.9935) rotate(74.5562) scale(13.9029 13.2727)">
<stop stop-color="#18388F"/>
<stop offset="0.09" stop-color="#183992" stop-opacity="0.78"/>
<stop offset="0.22" stop-color="#193B96" stop-opacity="0.5"/>
<stop offset="0.35" stop-color="#193C98" stop-opacity="0.28"/>
<stop offset="0.47" stop-color="#1A3C9A" stop-opacity="0.13"/>
<stop offset="0.59" stop-color="#1A3D9C" stop-opacity="0.03"/>
<stop offset="0.7" stop-color="#1A3D9C" stop-opacity="0"/>
</radialGradient>
<radialGradient id="paint28_radial_4497_18469" cx="0" cy="0" r="1" gradientUnits="userSpaceOnUse" gradientTransform="translate(58.7962 52.3643) rotate(74.5562) scale(13.9029 13.2727)">
<stop stop-color="#1A3D9C" stop-opacity="0.8"/>
<stop offset="0.01" stop-color="#1A3D9C" stop-opacity="0.78"/>
<stop offset="0.24" stop-color="#1A3D9C" stop-opacity="0.45"/>
<stop offset="0.44" stop-color="#1A3D9C" stop-opacity="0.2"/>
<stop offset="0.6" stop-color="#1A3D9C" stop-opacity="0.05"/>
<stop offset="0.7" stop-color="#1A3D9C" stop-opacity="0"/>
</radialGradient>
<radialGradient id="paint29_radial_4497_18469" cx="0" cy="0" r="1" gradientUnits="userSpaceOnUse" gradientTransform="translate(22.6272 44.1781) rotate(66.9095) scale(33.1949 22.1155)">
<stop stop-color="#1A3D9C"/>
<stop offset="0.4" stop-color="#1A3D9C" stop-opacity="0.56"/>
<stop offset="0.48" stop-color="#1A3D9C" stop-opacity="0.43"/>
<stop offset="0.69" stop-color="#1A3D9C" stop-opacity="0.12"/>
<stop offset="0.79" stop-color="#1A3D9C" stop-opacity="0"/>
</radialGradient>
<radialGradient id="paint30_radial_4497_18469" cx="0" cy="0" r="1" gradientUnits="userSpaceOnUse" gradientTransform="translate(20.4925 36.4065) rotate(76.0263) scale(24.6084 16.3285)">
<stop stop-color="#1A3D9C"/>
<stop offset="0.06" stop-color="#1A3D9C" stop-opacity="0.88"/>
<stop offset="0.21" stop-color="#1A3D9C" stop-opacity="0.61"/>
<stop offset="0.36" stop-color="#1A3D9C" stop-opacity="0.39"/>
<stop offset="0.51" stop-color="#1A3D9C" stop-opacity="0.22"/>
<stop offset="0.67" stop-color="#1A3D9C" stop-opacity="0.1"/>
<stop offset="0.83" stop-color="#1A3D9C" stop-opacity="0.02"/>
<stop offset="1" stop-color="#1A3D9C" stop-opacity="0"/>
</radialGradient>
<radialGradient id="paint31_radial_4497_18469" cx="0" cy="0" r="1" gradientUnits="userSpaceOnUse" gradientTransform="translate(20.4925 36.4065) rotate(76.0263) scale(24.6084 16.3285)">
<stop stop-color="#1B3E9E"/>
<stop offset="0.06" stop-color="#1B3E9E" stop-opacity="0.87"/>
<stop offset="0.21" stop-color="#1B3E9D" stop-opacity="0.61"/>
<stop offset="0.36" stop-color="#1A3D9D" stop-opacity="0.39"/>
<stop offset="0.52" stop-color="#1A3D9C" stop-opacity="0.22"/>
<stop offset="0.67" stop-color="#1A3D9C" stop-opacity="0.1"/>
<stop offset="0.83" stop-color="#1A3D9C" stop-opacity="0.02"/>
<stop offset="1" stop-color="#1A3D9C" stop-opacity="0"/>
</radialGradient>
<radialGradient id="paint32_radial_4497_18469" cx="0" cy="0" r="1" gradientUnits="userSpaceOnUse" gradientTransform="translate(21.4306 34.0081) rotate(76.0263) scale(18.8265 12.492)">
<stop stop-color="#183991"/>
<stop offset="0.03" stop-color="#183992" stop-opacity="0.95"/>
<stop offset="0.18" stop-color="#193A95" stop-opacity="0.66"/>
<stop offset="0.34" stop-color="#193B97" stop-opacity="0.42"/>
<stop offset="0.5" stop-color="#1A3C99" stop-opacity="0.24"/>
<stop offset="0.66" stop-color="#1A3D9B" stop-opacity="0.1"/>
<stop offset="0.82" stop-color="#1A3D9C" stop-opacity="0.03"/>
<stop offset="1" stop-color="#1A3D9C" stop-opacity="0"/>
</radialGradient>
<radialGradient id="paint33_radial_4497_18469" cx="0" cy="0" r="1" gradientUnits="userSpaceOnUse" gradientTransform="translate(24.9753 36.4921) rotate(87.1212) scale(14.8718 13.1663)">
<stop offset="0.04" stop-color="#2453D6" stop-opacity="0.6"/>
<stop offset="0.2" stop-color="#2453D6" stop-opacity="0.49"/>
<stop offset="0.52" stop-color="#2453D6" stop-opacity="0.2"/>
<stop offset="0.73" stop-color="#2453D6" stop-opacity="0"/>
</radialGradient>
<linearGradient id="paint34_linear_4497_18469" x1="56.4995" y1="1.37733" x2="39.7622" y2="42.9856" gradientUnits="userSpaceOnUse">
<stop stop-color="#3774FF"/>
<stop offset="0.05" stop-color="#3774FF" stop-opacity="0.91"/>
<stop offset="0.16" stop-color="#3774FF" stop-opacity="0.66"/>
<stop offset="0.32" stop-color="#3774FF" stop-opacity="0.28"/>
<stop offset="0.43" stop-color="#3774FF" stop-opacity="0"/>
</linearGradient>
</defs>
</svg>
