<svg width="80" height="80" viewBox="0 0 80 80" fill="none" xmlns="http://www.w3.org/2000/svg">
<path d="M62 0H18C8.05887 0 0 8.05887 0 18V62C0 71.9411 8.05887 80 18 80H62C71.9411 80 80 71.9411 80 62V18C80 8.05887 71.9411 0 62 0Z" fill="#0E72ED"/>
<path d="M57.4477 48.9118L62.588 53.1189C63.8478 54.1501 64.4777 54.6656 64.9854 54.7885C66.0235 55.0398 67.0994 54.5449 67.5675 53.6007C67.7963 53.139 67.7963 52.3337 67.7963 50.723V29.0962C67.7963 27.4855 67.7963 26.6802 67.5675 26.2185C67.0994 25.2743 66.0235 24.7794 64.9854 25.0307C64.4777 25.1536 63.8478 25.6691 62.588 26.7002L57.4477 30.9073C56.6101 31.5928 56.1913 31.9356 55.8547 32.3274C55.1794 33.1136 54.7275 34.061 54.545 35.0739C54.454 35.5787 54.454 36.1141 54.454 37.1849V42.6343C54.454 43.7051 54.454 44.2405 54.545 44.7453C54.7275 45.7581 55.1794 46.7056 55.8547 47.4918C56.1913 47.8836 56.6101 48.2264 57.4477 48.9118Z" fill="white"/>
<path d="M12.2031 30.396C12.2031 28.3747 12.2031 27.3641 12.6036 26.5921C12.956 25.913 13.5181 25.3608 14.2096 25.0148C14.9956 24.6215 16.0246 24.6215 18.0827 24.6215H36.8331C42.2226 24.6215 44.9174 24.6215 46.9759 25.6516C48.7866 26.5577 50.2588 28.0036 51.1814 29.782C52.2302 31.8037 52.2302 34.4504 52.2302 39.7436V49.4232C52.2302 51.4445 52.2302 52.4551 51.8297 53.2271C51.4774 53.9062 50.9153 54.4583 50.2238 54.8044C49.4377 55.1977 48.4087 55.1977 46.3507 55.1977H27.6002C22.2107 55.1977 19.516 55.1977 17.4575 54.1676C15.6468 53.2615 14.1746 51.8156 13.252 50.0372C12.2031 48.0155 12.2031 45.3688 12.2031 40.0756V30.396Z" fill="white"/>
</svg>
